<?xml version="1.0" encoding="utf-8"?>
<!-- Generator: Adobe Illustrator 16.0.0, SVG Export Plug-In . SVG Version: 6.00 Build 0)  -->
<!DOCTYPE svg PUBLIC "-//W3C//DTD SVG 1.1//EN" "http://www.w3.org/Graphics/SVG/1.1/DTD/svg11.dtd">
<svg version="1.1" id="圖層_1" xmlns="http://www.w3.org/2000/svg" xmlns:xlink="http://www.w3.org/1999/xlink" x="0px" y="0px"
	 width="96px" height="20px" viewBox="0 0 96 20" enable-background="new 0 0 96 20" xml:space="preserve">
<rect opacity="0" width="96" height="20"/>
<g>
	<path fill="#FFFFFF" d="M43.169,3.318c1.409-0.199-0.044-1.959-0.828-2.065c-5.253-0.687-10.618-0.355-15.906-0.293
		c-4.918,0.064-9.899,0.045-14.795,0.548c-1.049,0.108,0.007,1.523,0.637,1.582c5.291,0.508,10.66,0.485,15.976,0.555
		c1.492,0.018,2.991,0.06,4.491,0.091c-1.826,0.752-3.567,1.674-5.145,2.679c-2.192,1.398-4.235,3.049-6.082,4.88
		c-1.766,1.75-4.322,4.115-4.832,6.629c-0.182,0.914,1.151,2.443,2.119,1.744c1.811-1.294,2.945-3.646,4.443-5.318
		c1.776-1.995,3.773-3.79,5.975-5.311c4.313-2.981,8.845-4.291,13.791-5.701C43.064,3.329,43.117,3.325,43.169,3.318z"/>
	<path fill="#FFFFFF" d="M34.45,9.499c-0.327,0.093-0.492,0.275-0.562,0.489c-1.394,0.076-2.89,0.916-2.952,2.45
		c-0.078,1.84,1.94,3.145,3.578,3.301c1.684,0.159,3.762-0.896,3.818-2.791C38.395,11.14,36.33,8.961,34.45,9.499z M35.545,12.304
		c-0.167,0.678-1.013,1.104-1.665,1.092c-0.491-0.01-0.751-0.139-0.602-0.655c0.157-0.542,0.688-1.026,1.238-1.315
		c0.071,0.058,0.144,0.113,0.217,0.152C35.188,11.813,35.68,11.769,35.545,12.304z"/>
	<path fill="#FFFFFF" d="M5.88,0.283C5.742,0.267,5.628,0.284,5.527,0.316C4.578,0.047,3.546,0.101,2.739,0.586
		C0.608,1.88,1.005,4.938,2.681,6.414c1.67,1.469,4.705,1.568,5.926-0.542C9.858,3.698,8.379,0.586,5.88,0.283z M6.024,3.864
		C5.83,4.343,4.755,5.24,4.189,4.757C3.711,4.359,4.192,3.172,4.531,2.873c0.422-0.38,0.944-0.452,1.401-0.274
		C6.122,2.995,6.2,3.428,6.024,3.864z"/>
	<path fill="#FFFFFF" d="M83.705,1.5c-5.396-0.519-10.87-0.463-16.288-0.508C62.334,0.949,57.188,0.64,52.148,1.358
		c-1.41,0.194,0.041,1.959,0.829,2.06c0.604,0.078,1.21,0.139,1.816,0.193c4.336,1.16,8.377,2.517,12.216,5.128
		c2.151,1.465,4.143,3.186,5.897,5.105c1.603,1.756,2.763,3.94,4.517,5.521c0.688,0.617,2.184,0.532,1.869-0.68
		c-0.64-2.534-3.033-4.835-4.813-6.655c-1.987-2.025-4.184-3.822-6.569-5.375C66.316,5.618,64.55,4.637,62.69,3.82
		c2.172-0.036,4.344-0.112,6.506-0.148c5.034-0.087,10.13-0.075,15.142-0.591C85.393,2.968,84.333,1.56,83.705,1.5z"/>
	<path fill="#FFFFFF" d="M61.753,9.893c-0.265-0.208-0.57-0.364-0.845-0.408c-1.98-0.317-3.753,1.454-3.098,3.438
		c0.652,1.955,2.943,3.164,4.929,2.746c1.677-0.357,2.807-1.924,1.998-3.562C64.213,11.05,63.007,9.985,61.753,9.893z M61.64,13.359
		c-0.347,0.065-1.188,0.101-1.248-0.411c-0.063-0.579,1.27-1.104,1.625-1.389c0.038-0.031,0.053-0.066,0.084-0.098
		c0.302,0.199,0.56,0.481,0.622,0.784C62.849,12.853,62.145,13.257,61.64,13.359z"/>
	<path fill="#FFFFFF" d="M92.985,0.906c-0.865-0.625-2.224-0.878-3.331-0.575c-0.133-0.03-0.264-0.046-0.386-0.036
		c-2.604,0.246-2.836,3.552-1.573,5.303C89,7.406,91.958,8.297,93.732,6.636C95.458,5.024,94.738,2.17,92.985,0.906z M91.395,4.504
		c-0.387,0.321-1.259,0.504-1.496,0.059c-0.253-0.478,0.122-1.238,0.486-1.825c0.5-0.288,1.094-0.485,1.426-0.117
		C92.244,3.096,91.787,4.178,91.395,4.504z"/>
	<path fill="#FFFFFF" d="M50.95,6.776c-1.1-1.768-1.951-3.585-2.973-5.37c-0.474-0.824-2.218-1.632-2.409-0.184
		c-0.06,0.449-0.044,0.886,0.029,1.316C44.875,4.57,44.145,6.6,43.283,8.575c-0.803,1.824-2.459,4.006-2.005,6.117
		c0.593,2.749,4.285,4.595,6.9,4.144c3.266-0.564,5.021-4.13,4.729-7.189C52.736,9.863,51.883,8.266,50.95,6.776z M48.838,14.653
		c-0.876,1.119-2.528,1.972-3.847,1.029c-1.482-1.051,0.076-3.318,0.642-4.719c0.661-1.627,1.173-3.294,1.562-4.992
		C49.032,8.73,51.413,11.382,48.838,14.653z"/>
</g>
</svg>
