<?xml version="1.0" encoding="utf-8"?>
<!-- Generator: Adobe Illustrator 21.0.0, SVG Export Plug-In . SVG Version: 6.00 Build 0)  -->
<svg version="1.1" id="圖層_1" xmlns="http://www.w3.org/2000/svg" xmlns:xlink="http://www.w3.org/1999/xlink" x="0px" y="0px"
	 viewBox="0 0 246 96" style="enable-background:new 0 0 246 96;" xml:space="preserve">
<style type="text/css">
	.st0{opacity:0;fill-opacity:0;}
	.st1{fill:#FFFFFF;}
</style>
<g id="圖層_1_1_">
	<g>
		<rect y="0" class="st0" width="246" height="96"/>
		<g>
			<path class="st1" d="M44.6,24.3L43.8,25c1.5,7.3,2.4,11.2,2.5,11.7c0.1,0.5,0.3,1.1,0.4,1.6l0,0c-0.5-0.8-1.4-1.8-2.5-3.1
				l-5.5-6.6l-0.8,0.6l1.6,9.5c0.2,1.2,0.5,2.6,0.9,4.1l0,0l-0.5-0.7l-1-1.3l-6.2-7.9l-0.8,0.6l8.9,11.2l0.7-0.5
				c-1.4-7.9-2.2-12.1-2.3-12.6c-0.1-0.5-0.2-1.1-0.4-1.6l0.1,0l0.3,0.4c0.3,0.4,0.7,1,1.3,1.7l6.7,8.1l0.6-0.4
				c-0.5-2.6-1-5.1-1.6-7.7C45.6,29.5,45.1,26.9,44.6,24.3z"/>
			<path class="st1" d="M57.1,33.1c-0.8,0.4-1.5,0.5-2.2,0.3c-0.7-0.3-1.3-0.8-1.8-1.8c-0.2-0.3-0.3-0.6-0.4-0.9l0.3-0.2
				c1.8-1,3-2.1,3.7-3.1c0.6-1.1,0.6-2.1,0.1-3.1c-0.3-0.6-0.8-1-1.4-1.1s-1.2,0-1.8,0.4c-0.8,0.5-1.5,1.2-1.9,2.2s-0.5,2-0.4,3.2
				c0.1,1.2,0.5,2.3,1.1,3.3c0.6,1.1,1.4,1.8,2.3,2.1c0.9,0.3,1.8,0.2,2.8-0.4c0.9-0.5,1.6-1.2,2.2-2l-0.5-0.8
				C58.5,32,57.9,32.7,57.1,33.1z M52.2,26.5c0.3-1,0.8-1.7,1.5-2.2c0.4-0.2,0.8-0.3,1.2-0.2c0.4,0.1,0.7,0.4,0.9,0.7
				c0.9,1.5-0.2,3.1-3.1,4.8l-0.4,0.2C52,28.7,52,27.6,52.2,26.5z"/>
			<path class="st1" d="M68.7,25.1L68.7,25.1l0.8,2.6l0.7-0.3l-3.4-15.2l-0.9,0.4c0.9,3.9,1.3,6.1,1.5,6.5l0,0
				c-0.9-1.2-2-1.4-3.4-0.8c-0.9,0.4-1.6,1.1-2.1,2.1c-0.5,0.9-0.7,2-0.6,3.3c0.1,1.2,0.3,2.4,0.9,3.6c1,2.2,2.4,2.9,4,2.2
				C67.6,28.8,68.5,27.3,68.7,25.1z M63,26.7c-0.5-1-0.7-2.1-0.8-3.2c-0.1-1.1,0.1-2.1,0.5-2.8c0.4-0.8,0.9-1.3,1.7-1.6
				c0.6-0.3,1.2-0.3,1.8,0c0.6,0.3,1,0.8,1.4,1.5c0.2,0.5,0.4,1.2,0.5,2c0.1,0.8,0.1,1.7,0,2.5c-0.1,0.8-0.4,1.5-0.7,2.1
				s-0.8,1-1.3,1.3C64.8,29.1,63.8,28.5,63,26.7z"/>
			<path class="st1" d="M77.9,24.5c1.5-0.5,2.5-1.9,3-4.1l0.1,0l0.5,2.7l0.8-0.3L80.2,7.4l-0.9,0.3c0.5,4,0.8,6.2,0.8,6.6l0,0
				c-0.8-1.2-1.9-1.6-3.3-1.1c-1,0.3-1.7,1-2.3,1.8c-0.6,0.9-0.9,2-0.9,3.2c-0.1,1.2,0.1,2.5,0.5,3.6C74.9,24.3,76.2,25.1,77.9,24.5
				z M74.6,18.3c0.1-1.1,0.3-2,0.7-2.8c0.4-0.7,1-1.2,1.8-1.5c0.7-0.2,1.3-0.2,1.8,0.2s0.9,0.9,1.2,1.7c0.2,0.5,0.3,1.2,0.3,2
				s0,1.7-0.2,2.5c-0.2,0.8-0.5,1.5-0.9,2.1c-0.4,0.6-0.9,1-1.4,1.1c-1.2,0.4-2.2-0.3-2.8-2.1C74.7,20.5,74.5,19.4,74.6,18.3z"/>
			<path class="st1" d="M86.6,8.2c0.1,0.1,0.3,0.1,0.5,0.1c0.2-0.1,0.4-0.2,0.5-0.5c0.1-0.2,0.1-0.5,0-0.9c-0.1-0.5-0.4-0.6-0.7-0.5
				c-0.2,0.1-0.4,0.2-0.5,0.5s-0.1,0.5,0,0.9C86.3,8,86.4,8.1,86.6,8.2z"/>
			<polygon class="st1" points="86.6,10.5 87.2,21.3 88.1,21.1 87.5,10.3 			"/>
			<path class="st1" d="M99.9,8c-0.5-0.3-1.2-0.4-2-0.2c-1.6,0.3-2.8,1.3-3.5,3.1l-0.1,0l-0.1-2.2l-0.8,0.2l-0.2,10.9l0.9-0.2
				l0.1-4.8c0-1.1,0.2-2.1,0.5-2.9c0.3-0.9,0.7-1.6,1.2-2.1c0.5-0.6,1.2-0.9,1.9-1c0.6-0.1,1-0.1,1.4,0.2s0.6,0.6,0.7,1.1
				c0.1,0.4,0.1,0.9,0.1,1.5l-0.1,6.9l0.9-0.2l0.2-6.7c0-0.7,0-1.3-0.1-1.8C100.8,8.9,100.4,8.4,99.9,8z"/>
			<path class="st1" d="M108.8,21.9c1.1-0.1,2-0.4,2.8-0.7s1.3-0.9,1.7-1.5c0.4-0.6,0.5-1.3,0.4-2c-0.2-1.5-1.4-2.2-3.6-2.2l-1.2,0
				c-0.5,0-0.9-0.1-1.1-0.2c-0.2-0.1-0.3-0.3-0.4-0.6s0.1-0.5,0.3-0.8c0.3-0.3,0.6-0.6,1.1-0.8c0.1,0,0.3,0.1,0.8,0
				c0.8-0.1,1.5-0.3,2-0.7c0.6-0.4,1-0.9,1.3-1.6c0.3-0.7,0.4-1.4,0.3-2.1c0-0.4-0.1-0.7-0.3-1.1c-0.1-0.4-0.3-0.6-0.5-0.8l2.3-0.3
				l0.1-0.8l-3.5,0.4c-0.5-0.1-1-0.1-1.4-0.1c-0.7,0.1-1.4,0.3-2,0.7c-0.6,0.4-1,0.9-1.3,1.6c-0.3,0.6-0.4,1.3-0.3,2
				c0.1,0.6,0.2,1.1,0.5,1.5c0.3,0.4,0.7,0.7,1.2,0.9c-1.2,0.6-1.7,1.4-1.7,2.2c0.1,0.5,0.3,0.9,0.9,1.1c-1.9,0.8-2.8,2-2.7,3.6
				c0.1,0.8,0.5,1.5,1.2,1.9C106.6,21.9,107.5,22,108.8,21.9z M108.1,11.9c-0.4-0.3-0.7-0.9-0.7-1.6c-0.1-0.5,0-1,0.2-1.5
				c0.2-0.5,0.5-0.9,0.9-1.2c0.4-0.3,0.9-0.5,1.5-0.6c0.7-0.1,1.2,0.1,1.6,0.4c0.4,0.3,0.6,0.8,0.7,1.5c0.1,0.6,0,1.2-0.2,1.7
				c-0.2,0.5-0.5,0.9-0.9,1.2c-0.4,0.3-0.9,0.5-1.5,0.5C109,12.3,108.5,12.2,108.1,11.9z M105.6,19.4c-0.1-0.6,0.1-1.2,0.5-1.7
				c0.4-0.5,1.1-0.9,2.1-1.3l1.6,0c1,0,1.7,0.1,2.2,0.3s0.7,0.7,0.7,1.2c0.1,0.8-0.2,1.5-0.9,2.1c-0.7,0.6-1.7,0.9-3,1
				c-0.9,0.1-1.7,0-2.2-0.3S105.7,20.1,105.6,19.4z"/>
			<polygon class="st1" points="129.4,2 128.4,2 125.2,16.2 126.1,16.2 			"/>
			<path class="st1" d="M139.3,6.2c-1.6-0.1-3.1,0.5-4.3,1.9l-0.1,0l0.6-2.1L134.8,6l-3.2,10.4l1,0.1l1.4-4.5c0.3-1.1,0.8-2,1.3-2.7
				c0.5-0.7,1.1-1.3,1.8-1.7c0.7-0.4,1.4-0.5,2.1-0.5c0.6,0.1,1,0.2,1.3,0.6c0.3,0.3,0.4,0.7,0.3,1.3c0,0.4-0.2,0.9-0.3,1.5
				l-2.1,6.6l1,0.1l2-6.4c0.2-0.7,0.4-1.3,0.4-1.7c0.1-0.8-0.1-1.4-0.5-1.8C140.8,6.6,140.2,6.3,139.3,6.2z"/>
			<path class="st1" d="M154,8.6l-5.2,6.3c-0.7,0.8-1.2,1.6-1.7,2.2l-0.1,0c0.1-0.6,0.1-1.4,0.1-2.5l0.2-7.3l-1-0.2L146.3,18
				l1.1,0.2l7.6-9.4L154,8.6z"/>
			<polygon class="st1" points="155.6,20 160.3,10.2 159.4,10 154.7,19.7 			"/>
			<path class="st1" d="M160.9,8.2c0.2,0.1,0.4,0,0.6-0.2c0.2-0.2,0.3-0.4,0.4-0.8c0.1-0.5,0-0.7-0.4-0.8c-0.2-0.1-0.5,0-0.6,0.2
				c-0.2,0.2-0.3,0.4-0.4,0.8c-0.1,0.2,0,0.4,0,0.6C160.6,8.1,160.7,8.2,160.9,8.2z"/>
			<path class="st1" d="M162.1,21.3c0.2,0.4,0.7,0.8,1.3,0.9c0.4,0.1,1,0.2,1.7,0.2l0.2-0.8c-0.6,0-1.1-0.1-1.5-0.2
				c-0.8-0.2-1-0.8-0.8-1.7c0.1-0.4,0.3-0.9,0.7-1.5l3.1-5.6l2.6,0.8l0.4-0.7l-2.7-0.8l1.2-2.2l-0.5-0.2l-1.6,2.1l-1.8-0.4l-0.3,0.6
				l1.7,0.5l-2.9,5.3c-0.4,0.8-0.7,1.4-0.9,1.8C161.9,20.3,161.9,20.9,162.1,21.3z"/>
			<path class="st1" d="M171.1,24.9c0.8,0.3,1.6,0.4,2.4,0.1s1.6-0.7,2.5-1.3l0.1,0l-1.4,2.3l0.7,0.3l5.9-9.1l-0.7-0.3l-1.2,1.6
				l-0.1,0c0.2-1.4-0.4-2.4-1.8-3c-0.9-0.4-1.9-0.4-2.9-0.1c-1,0.3-1.9,0.9-2.8,1.8s-1.5,2-2,3.2C169,22.7,169.4,24.2,171.1,24.9z
				 M170.8,20.7c0.4-1,1-1.9,1.7-2.7c0.8-0.8,1.6-1.4,2.4-1.7c0.8-0.3,1.6-0.2,2.3,0c0.5,0.2,0.8,0.4,1,0.8c0.2,0.3,0.3,0.7,0.4,1.2
				c0,0.4-0.1,0.9-0.3,1.4c-0.2,0.5-0.6,1.1-1.1,1.8c-0.5,0.7-1.1,1.2-1.8,1.7c-0.7,0.5-1.4,0.8-2,1s-1.3,0.1-1.8-0.1
				c-0.6-0.2-1-0.6-1.1-1.2C170.4,22.4,170.5,21.7,170.8,20.7z"/>
			<path class="st1" d="M182.5,27.3c0.2-0.4,0.5-0.8,0.9-1.4l3.9-5l2.5,1.2l0.5-0.6l-2.5-1.2l1.6-2l-0.5-0.2l-1.9,1.8l-1.7-0.6
				l-0.4,0.5l1.6,0.8l-3.7,4.8c-0.5,0.7-0.9,1.3-1.1,1.7c-0.3,0.6-0.4,1.2-0.2,1.6c0.2,0.5,0.5,0.8,1.1,1.1c0.4,0.2,0.9,0.4,1.6,0.5
				l0.4-0.8c-0.6-0.1-1.1-0.2-1.4-0.4C182.3,28.7,182.1,28.1,182.5,27.3z"/>
			<path class="st1" d="M196,22.2c0.2,0.1,0.4,0.1,0.6,0s0.4-0.4,0.6-0.7c0.2-0.4,0.2-0.7-0.2-0.9c-0.2-0.1-0.4-0.1-0.7,0
				c-0.2,0.1-0.4,0.3-0.6,0.7c-0.1,0.2-0.1,0.4-0.1,0.5C195.7,22,195.8,22.2,196,22.2z"/>
			<polygon class="st1" points="194.1,23.5 187.2,31.9 188,32.3 195,24 			"/>
			<path class="st1" d="M204.4,34.2c0.7-1,0.9-2,0.8-3c-0.2-0.9-0.7-1.7-1.7-2.4c-0.9-0.5-1.8-0.8-2.8-0.7s-2,0.4-3,1.1
				c-1,0.7-1.8,1.5-2.5,2.6c-0.7,1.1-1,2.1-0.9,3.1c0.1,0.9,0.7,1.7,1.7,2.4c0.9,0.6,1.8,0.8,2.8,0.8c1-0.1,2-0.4,3-1.1
				S203.7,35.3,204.4,34.2z M198.9,37.1c-0.8,0.1-1.6-0.1-2.3-0.5c-1.5-1-1.7-2.4-0.5-4.3c0.6-0.9,1.3-1.6,2.1-2.2
				c0.8-0.6,1.7-0.9,2.5-1s1.6,0.1,2.2,0.5c0.8,0.5,1.2,1.1,1.3,1.8c0.1,0.7-0.1,1.5-0.6,2.3c-0.6,1-1.4,1.8-2.2,2.4
				C200.5,36.7,199.7,37,198.9,37.1z"/>
			<path class="st1" d="M204.2,42.5l3.6-3.1c0.8-0.7,1.7-1.2,2.5-1.6c0.8-0.3,1.6-0.5,2.4-0.5c0.8,0,1.4,0.3,2,0.7
				c0.5,0.4,0.7,0.7,0.8,1.2c0,0.4-0.1,0.8-0.4,1.2c-0.3,0.3-0.6,0.7-1.1,1.1l-5.3,4.4l0.8,0.6l5.2-4.3c0.6-0.5,1-0.9,1.3-1.3
				c0.5-0.6,0.7-1.2,0.6-1.8c-0.1-0.6-0.5-1.1-1.1-1.7c-1.3-1-2.8-1.2-4.6-0.7l0,0l1.6-1.5l-0.6-0.5l-8.3,7L204.2,42.5z"/>
			<path class="st1" d="M75.2,88.4c3-1.9,4.7-4.3,5.4-7.8H84c-0.2,2.2-0.3,3-0.5,4C83.2,85.9,83,86.2,80,85l-0.5,1
				c3.7,3.7,6.2,2.3,6.8-0.8c0.4-1.9,0.6-3.1,0.7-6.1h-6.2c0.1-0.6,0.2-1.3,0.2-2.1h7.4v-1.6h-5.7l1.1-0.6c-0.6-1-1.5-1.9-2.4-2.8
				h5.4v-9.2h-5.9c0.9-1.1,1.9-2.5,2.5-3.8l-3.4-0.8c-0.2,1.9-0.3,3.2-0.7,4.6h-3.7V72h3.9c0.6,1.1,1,2.3,1.4,3.4h-6.5V77h3.6
				c-0.2,4.6-0.5,7.5-4,10.7c-0.3-0.3-0.6-0.6-0.9-1V76.1h-7.3v1.7h4.1v8.9c-1.3,1.8-3.1,3.5-4.8,4.8l2.3,2.4c1.7-1.9,3-4,4.3-6.6
				c1.6,3,3.8,4.7,11.6,5.1c4.6,0.2,11.6,0.1,15.7-0.2l1.4-3.6c-4.4,0.6-11.9,0.8-16.8,0.8C80.9,89.3,77.6,89.6,75.2,88.4z
				 M78.7,64.5h5.1v2h-5.1V64.5z M78.7,70.3v-2.2h5.1v2.2H78.7z"/>
			<path class="st1" d="M66.2,67.3c1.8,1.7,4,4.3,5.3,6.1l2.4-2.7c-2-1.8-4.8-3.5-6.9-4.6L66.2,67.3z"/>
			<path class="st1" d="M87.6,74.1c0.7-0.8,1.3-1.8,1.9-2.8c0.3,3.8,0.8,6.9,1.9,9.6c-1.4,2.8-3.4,5.2-6.3,7.4l0.7,1
				c2.9-1.6,5.1-3.6,6.8-6c1.1,1.9,2.5,3.5,4.4,5.2l2.5-2.9c-2-1.4-3.8-2.9-5.2-5.1c2.3-4.5,3-9.5,3.2-13.5h2.1v-1.7h-7.4
				c0.6-2.2,1.1-4.4,1.3-6.4l-3.4-0.5c-0.4,6.2-1,10.7-3.1,15L87.6,74.1z M91.4,67.1h3c-0.3,4-0.8,7.6-1.7,10.7
				c-1-2.3-1.7-5-2.1-8.5C90.8,68.5,91.1,67.8,91.4,67.1z"/>
			<path class="st1" d="M67.8,59l-0.7,1.1c2,1.9,3.9,4,5.3,5.8l2.3-2.7C72.6,61.6,69.9,60,67.8,59z"/>
			<rect x="107.4" y="70" class="st1" width="10.8" height="1.6"/>
			<path class="st1" d="M120.9,94h3.3v-7.9h9.4v3c0,1.9-0.5,2.4-5.2,1.2l-0.4,1.3c5.5,3.6,8.9,2.4,8.9-1.1V75.4h-16L120.9,94
				L120.9,94z M124.1,77.1h9.4v2.8h-9.4V77.1z M124.1,81.5h9.4v2.9h-9.4V81.5z"/>
			<polygon class="st1" points="107.4,76.9 118.2,76.9 118.2,75.3 107.4,75.3 			"/>
			<path class="st1" d="M119.2,64.8h-5.7l2-1.7c-1.6-1.8-4.2-3.9-6.2-5l-1,1c0.9,1.3,2.5,3.6,3.8,5.8h-6.4v1.7h13.3L119.2,64.8
				L119.2,64.8z"/>
			<path class="st1" d="M107.7,93.6h3v-2.8h4.4v1.9h2.9v-12h-10.3V93.6z M110.7,82.4h4.4v6.8h-4.4V82.4z"/>
			<polygon class="st1" points="130.3,68.4 136.8,68.4 136.8,66.7 130.3,66.7 130.3,64.1 138.3,64.1 138.3,62.4 130.3,62.4 
				130.3,58.4 126.9,58.4 126.9,62.4 119.3,62.4 119.3,64.1 126.9,64.1 126.9,66.7 120.8,66.7 120.8,68.4 126.9,68.4 126.9,71.2 
				118.7,71.2 118.7,73 138.9,73 138.9,71.2 130.3,71.2 			"/>
			<path class="st1" d="M156.2,84.4l-0.4,1.3c5.5,3.8,8.9,2.1,8.9-1.2v-7.7c2.1,2.3,4.2,5.1,6,7.9l3-3c-1.9-1.9-4.8-4.1-7.7-6
				c1.9-1.2,4.5-3.2,6.8-5.5l-3.3-2.3c-1.3,2.5-2.8,5.1-4.6,7.1l-0.2-0.1v-7.4c2.5-1.2,6-3.1,8.9-5.7l-3.7-2.6l-1.3,0.8h-17.5v1.7
				h17.1c-1.3,1.7-3,3.3-4.8,4.8l-2.1-0.3l0,9.6c-3.1,2.2-6.8,4.1-9.9,5.3l2.1,3.2c3.1-2.2,5.7-4.2,7.9-6.5v5.6
				C161.4,85.2,160.3,85.3,156.2,84.4z"/>
			<path class="st1" d="M153.2,68.1l-0.8,1.1c1.7,1.9,3.8,4.4,5.3,6.7l2.6-2.5C158.3,71.4,155.4,69.4,153.2,68.1z"/>
			<polygon class="st1" points="174.2,89.5 150.8,89.5 150.8,67.2 147.4,67.2 147.4,93.7 150.8,93.7 150.8,91.2 174.2,91.2 
				174.2,93.7 177.7,93.7 177.7,67.7 174.2,67.7 			"/>
			<rect x="2.5" y="74.2" class="st1" width="43.3" height="1"/>
			<rect x="2.5" y="78.7" class="st1" width="43.3" height="1"/>
			<rect x="200.2" y="74.2" class="st1" width="43.3" height="1"/>
			<rect x="200.2" y="78.7" class="st1" width="43.3" height="1"/>
		</g>
	</g>
</g>
<g id="圖層_2">
</g>
</svg>
