<?xml version="1.0" encoding="utf-8"?>
<!-- Generator: Adobe Illustrator 16.0.0, SVG Export Plug-In . SVG Version: 6.00 Build 0)  -->
<!DOCTYPE svg PUBLIC "-//W3C//DTD SVG 1.1//EN" "http://www.w3.org/Graphics/SVG/1.1/DTD/svg11.dtd">
<svg version="1.1" id="圖層_3" xmlns="http://www.w3.org/2000/svg" xmlns:xlink="http://www.w3.org/1999/xlink" x="0px" y="0px"
	 width="120px" height="60px" viewBox="0 0 120 60" enable-background="new 0 0 120 60" xml:space="preserve">
<g>
	<rect x="0" opacity="0" width="120.001" height="60"/>
	<g>
		<g>
			<path fill="#9DD1D7" d="M52.91,2.901c-1.496,0.611-3.127,1.496-3.944,2.107c1.428,0.953,4.692,3.943,2.993,8.023
				c-1.496,3.467-6.256,4.896-9.043,4.896v0.066c1.156,0.477,2.244,1.496,2.379,2.855c0.137,1.361-0.68,2.924-1.359,3.877
				c-1.225,1.904-2.447,3.332-2.447,4.76c0,0.543,0.34,1.154,1.291,1.154c1.088,0,2.652-0.883,4.896-2.582
				c1.428-1.088,2.516-2.041,3.264-2.721c0.408-0.408,0.748-0.68,0.951-0.477c0.137,0.137-0.068,0.408-0.477,0.816
				c-0.814,0.816-1.971,1.836-3.604,3.129c-1.971,1.563-4.215,2.922-6.322,2.922c-2.176,0-3.264-1.088-3.264-2.719
				c-0.068-1.699,1.223-3.74,2.379-5.236c1.293-1.631,2.449-2.924,2.381-4.215c0-0.816-0.68-1.291-1.225-1.564
				c-0.408,0.068-1.02,0.137-1.496,0.068c-0.611-0.068-0.951-0.203-1.223-0.34c-0.477,0.68-1.361,1.904-1.904,2.584
				c-4.963,6.051-8.975,8.158-12.715,9.791c0.883,0.203,2.516,0.477,3.332,0.543c1.836,0.137,3.535-0.203,4.963-1.154
				c1.02-0.68,1.02-0.885,1.156-0.816c0.135,0.068,0.068,0.543-0.611,1.156c-1.836,1.631-4.08,2.244-6.393,2.244
				c-1.631,0-4.08-0.613-5.234-0.953c-2.721,0.816-7.004,1.225-10.268,1.156c-2.447,0-6.188-0.545-6.188-2.244
				c0-1.768,2.719-2.855,7.004-2.652c2.924,0.205,7.682,1.496,11.15,2.313c2.516-1.225,5.508-3.943,9.928-9.859
				c5.914-7.75,10.674-12.375,14.006-14.551c-1.564-0.951-4.215-1.836-8.5-1.836c-8.635,0-17.814,5.236-19.514,12.512
				c-0.883,3.604,0.271,6.73,3.535,7.004c1.564,0.135,1.701-0.273,1.836-0.068c0.137,0.203-0.68,0.748-1.971,0.748
				c-4.08-0.137-6.936-3.061-6.053-7.752c1.43-7.684,11.695-13.055,22.166-13.055c4.76,0,7.955,1.02,9.451,1.768
				c1.088-0.814,2.993-1.768,4.352-2.311c1.428-0.613,3.877-1.293,6.188-1.293c2.041,0,4.148,0.613,4.896,1.768
				c0.34,0.545,0.34,1.021,0.203,1.021c-0.203,0-0.068-0.137-0.611-0.748C62.43,2.153,60.73,1.61,58.689,1.61
				C56.922,1.61,54.543,2.222,52.91,2.901z M11.843,29.011c-3.332-0.34-5.848-0.137-5.848,1.088c0,1.088,3.467,1.496,5.303,1.564
				c3.332,0.066,7.344-0.34,9.18-0.885C18.097,30.302,14.291,29.214,11.843,29.011z M43.664,10.925
				c-1.496,2.039-2.924,4.283-4.283,6.119c0.271,0,0.68,0,1.291,0.068c0.545,0.068,0.951,0.203,1.359,0.34
				c2.992-0.205,6.119-2.107,7.344-5.031c1.225-2.855,0.34-5.371-1.292-6.596C46.656,6.981,45.16,8.817,43.664,10.925z"/>
			<path fill="#9DD1D7" d="M59.646,28.534c1.291-0.883,2.855-2.107,4.146-3.264c0.408-0.34,0.613-0.408,0.748-0.271
				c0.137,0.203-0.135,0.545-0.543,0.885c-0.885,0.814-3.061,2.582-4.285,3.398c-2.855,1.904-5.371,2.789-7.682,2.789
				c-2.516,0-3.672-0.953-3.604-2.721c0.066-1.359,0.68-2.584,2.04-4.215l-0.068-0.068c-0.203,0.203-0.951,0.883-1.359,1.223
				c-0.34,0.273-0.545,0.342-0.68,0.205c-0.137-0.205,0.135-0.477,0.408-0.748c0.883-0.816,1.497-1.291,2.516-2.039
				c0.748-0.545,2.039-1.361,3.332-2.041c1.971-1.02,4.01-1.904,5.846-1.904h0.068c1.496,0,2.041,0.953,1.973,1.836
				c-0.137,1.77-2.313,3.129-4.352,4.148c-1.973,0.951-4.283,1.768-5.848,2.176c-0.271,0.543-0.408,1.156-0.408,1.564
				c0,1.02,0.545,1.563,1.564,1.563C54.342,31.05,56.654,30.575,59.646,28.534z M57.334,25.136c1.699-1.156,2.721-2.584,2.787-3.537
				c0.068-0.611-0.203-0.951-0.814-0.951c-0.613,0-1.633,0.68-2.992,1.973c-1.088,1.02-2.787,3.195-3.604,4.555
				C54.07,26.835,55.906,26.087,57.334,25.136z"/>
			<path fill="#9DD1D7" d="M73.518,14.257c1.768-1.973,5.305-5.373,7.004-6.527c0.68-0.477,2.176-1.361,3.195-1.361
				c1.564-0.066,0.545,0.545-0.611,1.564c-2.584,2.313-7.684,7.615-13.734,15.299c-3.4,4.352-7.412,9.654-11.287,14.891
				c-5.984,8.092-7.615,10.334-12.172,17.475c-0.611,0.951-0.543,1.291-0.408,1.359c0.205,0.137,0.545,0,0.885-0.408
				c0.885-1.02,3.401-4.555,5.303-7.344c1.428-1.902,4.557-6.188,7.82-10.539c2.787-3.672,5.643-7.342,8.227-10.402
				c1.768-2.039,4.148-4.42,5.984-5.779c1.902-1.428,4.078-2.652,5.846-2.652c1.496,0,2.244,0.68,2.041,1.768
				c-0.137,1.156-1.564,2.652-2.787,4.08c-1.088,1.225-1.973,2.244-2.381,2.924c-0.543,0.885-0.477,1.359-0.203,1.564
				c0.34,0.271,1.02,0.203,1.836-0.205c0.814-0.408,1.902-1.088,3.127-2.039s2.584-2.107,3.264-2.787
				c0.203-0.205,0.68-0.613,0.885-0.408c0.203,0.203-0.342,0.68-0.545,0.883c-0.748,0.748-2.855,2.584-4.148,3.537
				c-1.563,1.154-3.807,2.719-6.119,2.719c-1.699,0-2.311-0.951-2.176-1.971c0.205-1.43,1.836-3.264,2.992-4.557
				c1.088-1.225,2.447-2.719,2.924-3.4c0.34-0.475,0.271-0.746,0-0.883s-0.885,0.068-1.496,0.34c-2.107,1.02-4.623,2.992-7.07,5.643
				c-2.109,2.313-6.256,7.48-9.859,12.307c-2.992,4.012-6.188,8.229-8.227,11.221c-2.176,3.195-4.625,6.662-5.848,7.682
				c-0.545,0.477-1.361,0.816-2.041,0.68c-0.748-0.203-1.088-0.68-1.088-1.428c0-1.291,1.225-3.67,2.584-5.711
				c3.604-5.303,4.624-6.799,9.52-13.395c3.264-4.488,10.879-14.414,14.346-18.697c-3.127,2.855-5.711,5.234-6.799,6.188
				c-0.543,0.475-0.883,0.814-1.088,0.611c-0.203-0.205,0.271-0.68,0.951-1.293c1.496-1.359,3.332-3.059,4.625-4.283
				C68.01,19.831,71.613,16.364,73.518,14.257z"/>
			<path fill="#9DD1D7" d="M85.895,23.095c-1.02,0.885-2.039,1.836-2.787,2.516c-0.408,0.34-0.611,0.408-0.748,0.205
				c-0.068-0.205,0.137-0.408,0.34-0.613c0.271-0.271,2.855-2.516,4.963-4.283c1.768-2.244,5.1-6.391,8.023-9.723
				c2.313-2.719,5.1-5.711,8.092-8.432c0.816-0.748,1.564-1.154,2.447-1.154c0.68,0,1.02,0.271,1.02,0.475
				c-1.291,1.293-7.275,7.887-10.131,11.287c-4.555,5.508-9.451,11.83-10.879,14.959c-0.203,0.477-0.611,1.428-0.135,1.836
				c0.475,0.34,1.494-0.068,2.107-0.408c0.883-0.477,1.836-1.156,2.787-1.904c1.225-0.951,2.107-1.699,2.992-2.516
				c0.271-0.271,0.816-0.748,1.02-0.543c0.137,0.135-0.068,0.406-0.477,0.814c-0.814,0.816-2.516,2.313-4.146,3.537
				c-1.359,1.02-3.877,2.719-6.119,2.719c-1.361,0-2.176-0.611-2.109-1.836c0.068-1.631,1.77-4.283,3.809-6.867L85.895,23.095z"/>
			<path fill="#9DD1D7" d="M106.906,23.774c-1.361,1.156-3.74,2.992-5.508,4.352c-2.789,2.109-5.236,3.74-7.275,3.74
				c-1.428,0-2.244-0.748-2.176-1.971c0.068-0.748,0.475-1.701,1.223-2.721c1.428-1.904,3.129-3.807,4.828-5.439
				c-0.477,0.203-1.971,1.291-2.992,2.107c-1.02,0.816-1.699,1.359-2.379,1.973c-0.545,0.475-0.816,0.68-1.02,0.543
				c-0.137-0.135,0-0.408,0.748-1.088s3.195-2.719,4.826-3.807c1.768-1.225,2.652-1.496,3.943-1.496c1.43,0,1.564,0.203,0.748,1.088
				c-0.883,0.951-2.176,2.516-3.535,4.215c-1.156,1.428-2.176,2.924-2.516,3.672c-0.271,0.545-0.271,1.02-0.068,1.225
				c0.273,0.271,0.885,0.135,1.564-0.205c1.496-0.814,2.992-1.836,5.1-3.467c3.264-2.516,5.168-4.215,7.344-5.916
				c0.543-0.408,0.951-0.748,1.971-0.748c1.156,0,1.701,0.137,0.953,1.02c-1.088,1.43-2.652,3.469-4.012,5.305
				c-1.156,1.496-3.877,5.031-8.977,12.035c-5.982,8.158-11.082,15.773-12.033,17.406c-0.545,0.883-0.545,1.223-0.34,1.359
				c0.203,0.137,0.543,0,1.02-0.545c0.68-0.748,3.059-4.146,4.963-6.867c1.564-2.176,4.148-5.914,7.684-10.471
				c2.787-3.535,5.779-7.002,8.703-9.926c1.02-1.021,3.264-3.129,4.146-3.945c0.205-0.203,0.748-0.68,0.953-0.475
				c0.135,0.203-0.205,0.543-0.748,1.088c-0.885,0.816-2.313,2.176-3.943,3.807c-2.584,2.652-5.848,6.393-8.568,9.859
				c-3.195,4.215-5.982,8.092-8.09,11.15c-2.176,3.061-4.08,5.916-5.779,7.48c-0.613,0.543-1.293,0.951-1.973,0.883
				c-0.748-0.068-1.291-0.475-1.291-1.428c0-1.156,1.223-3.264,2.787-5.779c2.447-3.875,4.352-6.662,9.18-13.326
				c3.264-4.488,6.527-9.043,10.605-14.619L106.906,23.774z"/>
		</g>
	</g>
	<g>
		<path fill="#9DD1D7" d="M48.654,28.125c-0.128,0.406-0.206,0.81-0.227,1.226c-0.068,1.768,1.088,2.721,3.604,2.721
			c2.311,0,4.826-0.885,7.682-2.789c1.225-0.816,3.4-2.584,4.285-3.398c0.408-0.34,0.68-0.682,0.543-0.885
			c-0.135-0.137-0.34-0.068-0.748,0.271c-1.291,1.156-2.855,2.381-4.146,3.264c-2.992,2.041-5.305,2.516-6.188,2.516
			c-1.02,0-1.564-0.543-1.564-1.563c0-0.408,0.137-1.021,0.408-1.564c1.564-0.408,3.875-1.225,5.848-2.176
			c2.039-1.02,4.215-2.379,4.352-4.148c0.068-0.883-0.477-1.836-1.973-1.836h-0.068c-1.836,0-3.875,0.885-5.846,1.904
			c-1.293,0.68-2.584,1.496-3.332,2.041c-1.02,0.748-1.633,1.223-2.516,2.039c-0.273,0.271-0.545,0.543-0.408,0.748
			c0.135,0.137,0.34,0.068,0.68-0.205c0.408-0.34,1.156-1.02,1.359-1.223l0.068,0.068c-0.498,0.598-0.895,1.141-1.203,1.655
			c-0.475,0.396-0.995,0.816-1.588,1.269c-2.244,1.699-3.809,2.582-4.896,2.582c-0.951,0-1.291-0.611-1.291-1.154
			c0-1.428,1.223-2.855,2.447-4.76c0.68-0.953,1.496-2.516,1.359-3.877c-0.135-1.359-1.223-2.379-2.379-2.855v-0.066
			c2.787,0,7.547-1.43,9.043-4.896c1.699-4.08-1.564-7.07-2.993-8.023c0.817-0.611,2.448-1.496,3.944-2.107
			c1.633-0.68,4.012-1.291,5.779-1.291c2.041,0,3.74,0.543,4.557,1.428c0.543,0.611,0.408,0.748,0.611,0.748
			c0.137,0,0.137-0.477-0.203-1.021c-0.748-1.154-2.855-1.768-4.896-1.768c-2.311,0-4.76,0.68-6.188,1.293
			c-1.359,0.543-3.264,1.496-4.352,2.311c-1.496-0.748-4.691-1.768-9.451-1.768c-10.471,0-20.736,5.371-22.166,13.055
			c-0.883,4.691,1.973,7.615,6.053,7.752c1.291,0,2.107-0.545,1.971-0.748c-0.135-0.205-0.271,0.203-1.836,0.068
			c-3.264-0.273-4.418-3.4-3.535-7.004C20.953,8.681,30.132,3.444,38.767,3.444c4.285,0,6.936,0.885,8.5,1.836
			c-3.332,2.176-8.092,6.801-14.006,14.551c-4.42,5.916-7.412,8.635-9.928,9.859c-3.469-0.816-8.227-2.107-11.15-2.313
			c-4.285-0.203-7.004,0.885-7.004,2.652c0,1.699,3.74,2.244,6.188,2.244c3.264,0.068,7.547-0.34,10.268-1.156
			c1.154,0.34,3.604,0.953,5.234,0.953c2.313,0,4.557-0.613,6.393-2.244c0.68-0.613,0.746-1.088,0.611-1.156
			c-0.137-0.068-0.137,0.137-1.156,0.816c-1.428,0.951-3.127,1.291-4.963,1.154c-0.816-0.066-2.449-0.34-3.332-0.543
			c3.74-1.633,7.752-3.74,12.715-9.791c0.543-0.68,1.428-1.904,1.904-2.584c0.271,0.137,0.611,0.271,1.223,0.34
			c0.477,0.068,1.088,0,1.496-0.068c0.545,0.273,1.225,0.748,1.225,1.564c0.068,1.291-1.088,2.584-2.381,4.215
			c-1.156,1.496-2.447,3.537-2.379,5.236c0,1.631,1.088,2.719,3.264,2.719c2.107,0,4.352-1.359,6.322-2.922
			C48.113,28.567,48.383,28.347,48.654,28.125z M56.314,22.62c1.359-1.293,2.379-1.973,2.992-1.973c0.611,0,0.883,0.34,0.814,0.951
			c-0.066,0.953-1.088,2.381-2.787,3.537c-1.428,0.951-3.264,1.699-4.623,2.039C53.527,25.815,55.227,23.64,56.314,22.62z
			 M11.298,31.663c-1.836-0.068-5.303-0.477-5.303-1.564c0-1.225,2.516-1.428,5.848-1.088c2.447,0.203,6.254,1.291,8.635,1.768
			C18.642,31.323,14.63,31.729,11.298,31.663z M42.031,17.452c-0.408-0.137-0.814-0.271-1.359-0.34
			c-0.611-0.068-1.02-0.068-1.291-0.068c1.359-1.836,2.787-4.08,4.283-6.119c1.496-2.107,2.992-3.943,4.42-5.1
			c1.631,1.225,2.516,3.74,1.292,6.596C48.15,15.345,45.023,17.247,42.031,17.452z"/>
		<path fill="#9DD1D7" d="M114.793,24.728c-0.205-0.205-0.748,0.271-0.953,0.475c-0.883,0.816-3.127,2.924-4.146,3.945
			c-2.924,2.924-5.916,6.391-8.703,9.926c-3.535,4.557-6.119,8.295-7.684,10.471c-1.904,2.721-4.283,6.119-4.963,6.867
			c-0.477,0.545-0.816,0.682-1.02,0.545c-0.205-0.137-0.205-0.477,0.34-1.359c0.951-1.633,6.051-9.248,12.033-17.406
			c5.1-7.004,7.82-10.539,8.977-12.035c1.359-1.836,2.924-3.875,4.012-5.305c0.748-0.883,0.203-1.02-0.953-1.02
			c-1.02,0-1.428,0.34-1.971,0.748c-2.176,1.701-4.08,3.4-7.344,5.916c-2.107,1.631-3.604,2.652-5.1,3.467
			c-0.68,0.34-1.291,0.477-1.564,0.205c-0.203-0.205-0.203-0.68,0.068-1.225c0.34-0.748,1.359-2.244,2.516-3.672
			c1.359-1.699,2.652-3.264,3.535-4.215c0.816-0.885,0.682-1.088-0.748-1.088c-1.291,0-2.176,0.271-3.943,1.496
			c-1.631,1.088-4.078,3.127-4.826,3.807s-0.885,0.953-0.748,1.088c0.203,0.137,0.475-0.068,1.02-0.543
			c0.68-0.613,1.359-1.156,2.379-1.973c1.021-0.816,2.516-1.904,2.992-2.107c-1.01,0.97-2.014,2.04-2.967,3.144
			c-0.004-0.029-0.004-0.061-0.025-0.083c-0.203-0.205-0.748,0.271-1.02,0.543c-0.885,0.816-1.768,1.564-2.992,2.516
			c-0.951,0.748-1.904,1.428-2.787,1.904c-0.613,0.34-1.633,0.748-2.107,0.408c-0.477-0.408-0.068-1.359,0.135-1.836
			c1.428-3.129,6.324-9.451,10.879-14.959c2.855-3.4,8.84-9.994,10.131-11.287c0-0.203-0.34-0.475-1.02-0.475
			c-0.883,0-1.631,0.406-2.447,1.154c-2.992,2.721-5.779,5.713-8.092,8.432c-2.924,3.332-6.256,7.479-8.023,9.723
			c-2.107,1.768-4.691,4.012-4.963,4.283c-0.203,0.205-0.408,0.408-0.34,0.613c0.137,0.203,0.34,0.135,0.748-0.205
			c0.748-0.68,1.768-1.631,2.787-2.516l0.068,0.068c-0.5,0.633-0.979,1.27-1.418,1.895c-0.029,0.028-0.057,0.055-0.08,0.078
			c-0.68,0.68-2.039,1.836-3.264,2.787s-2.313,1.631-3.127,2.039c-0.816,0.408-1.496,0.477-1.836,0.205
			c-0.273-0.205-0.34-0.68,0.203-1.564c0.408-0.68,1.293-1.699,2.381-2.924c1.223-1.428,2.65-2.924,2.787-4.08
			c0.203-1.088-0.545-1.768-2.041-1.768c-1.768,0-3.943,1.225-5.846,2.652c-1.836,1.359-4.217,3.74-5.984,5.779
			c-2.584,3.061-5.439,6.73-8.227,10.402c-3.264,4.352-6.393,8.637-7.82,10.539c-1.902,2.789-4.418,6.324-5.303,7.344
			c-0.34,0.408-0.68,0.545-0.885,0.408c-0.135-0.068-0.203-0.408,0.408-1.359c4.557-7.141,6.188-9.383,12.172-17.475
			c3.875-5.236,7.887-10.539,11.287-14.891c6.051-7.684,11.15-12.986,13.734-15.299c1.156-1.02,2.176-1.631,0.611-1.564
			c-1.02,0-2.516,0.885-3.195,1.361c-1.699,1.154-5.236,4.555-7.004,6.527c-1.904,2.107-5.508,5.574-6.73,6.662
			c-1.293,1.225-3.129,2.924-4.625,4.283c-0.68,0.613-1.154,1.088-0.951,1.293c0.205,0.203,0.545-0.137,1.088-0.611
			c1.088-0.953,3.672-3.332,6.799-6.188c-3.467,4.283-11.082,14.209-14.346,18.697c-4.896,6.596-5.917,8.092-9.52,13.395
			c-1.359,2.041-2.584,4.42-2.584,5.711c0,0.748,0.34,1.225,1.088,1.428c0.68,0.137,1.496-0.203,2.041-0.68
			c1.223-1.02,3.672-4.486,5.848-7.682c2.039-2.992,5.234-7.209,8.227-11.221c3.604-4.826,7.75-9.994,9.859-12.307
			c2.447-2.65,4.963-4.623,7.07-5.643c0.611-0.271,1.225-0.477,1.496-0.34s0.34,0.408,0,0.883c-0.477,0.682-1.836,2.176-2.924,3.4
			c-1.156,1.293-2.787,3.127-2.992,4.557c-0.135,1.02,0.477,1.971,2.176,1.971c2.313,0,4.557-1.564,6.119-2.719
			c0.752-0.554,1.773-1.404,2.648-2.168c-0.68,1.18-1.117,2.241-1.15,3.051c-0.066,1.225,0.748,1.836,2.109,1.836
			c2.242,0,4.76-1.699,6.119-2.719c1.336-1.003,2.711-2.183,3.615-3.027c-0.281,0.351-0.564,0.702-0.828,1.055
			c-0.748,1.02-1.154,1.973-1.223,2.721c-0.068,1.223,0.748,1.971,2.176,1.971c2.039,0,4.486-1.631,7.275-3.74
			c1.768-1.359,4.146-3.195,5.508-4.352l0.066,0.068c-4.078,5.576-7.342,10.131-10.605,14.619c-4.828,6.664-6.732,9.451-9.18,13.326
			c-1.564,2.516-2.787,4.623-2.787,5.779c0,0.953,0.543,1.359,1.291,1.428c0.68,0.068,1.359-0.34,1.973-0.883
			c1.699-1.564,3.604-4.42,5.779-7.48c2.107-3.059,4.895-6.936,8.09-11.15c2.721-3.467,5.984-7.207,8.568-9.859
			c1.631-1.631,3.059-2.99,3.943-3.807C114.588,25.271,114.928,24.931,114.793,24.728z"/>
	</g>
</g>
</svg>
