<?xml version="1.0" encoding="utf-8"?>
<!-- Generator: Adobe Illustrator 16.0.0, SVG Export Plug-In . SVG Version: 6.00 Build 0)  -->
<!DOCTYPE svg PUBLIC "-//W3C//DTD SVG 1.1//EN" "http://www.w3.org/Graphics/SVG/1.1/DTD/svg11.dtd">
<svg version="1.1" id="圖層_2" xmlns="http://www.w3.org/2000/svg" xmlns:xlink="http://www.w3.org/1999/xlink" x="0px" y="0px"
	 width="210px" height="70px" viewBox="0 0 210 70" enable-background="new 0 0 210 70" xml:space="preserve">
<g>
	<rect x="0" opacity="0" width="210" height="70"/>
	<g>
		<path fill="#9DD1D7" d="M36.947,28.388c1.904-2.516,4.42-6.527,6.119-8.975c1.836-2.584,4.148-5.304,6.325-6.256
			c0.477-0.204,0.68-0.952,0.137-1.088c-0.408-0.068-0.885,0.204-1.362,0.408c-1.428,0.611-3.672,0.951-6.254,1.563
			c-3.332,0.748-7.275,1.836-9.996,3.196C28.515,18.801,26,20.977,26,23.561c0,1.563,1.156,2.855,3.197,2.855
			c1.02,0,2.039-0.544,2.447-0.952c0.34-0.34,0.477-0.544,0.34-0.68s-0.34,0.136-0.68,0.34c-0.477,0.34-1.156,0.612-1.836,0.612
			c-1.02,0-1.836-0.612-1.836-1.769c0-2.039,2.447-4.352,4.42-5.507c2.516-1.496,5.779-2.652,9.994-3.74
			c2.107-0.544,4.148-0.951,5.645-1.359c-2.381,1.02-5.576,3.739-7.752,6.255c-1.836,2.176-4.76,5.983-6.936,8.703
			c-6.391,8.023-12.783,13.667-20.126,13.667c-2.72,0-4.556-0.952-4.556-2.244c0-1.02,0.748-1.495,1.292-2.039
			c0.748-0.612,1.224-1.36,1.292-2.04c0.137-1.428-0.884-2.38-2.313-2.38c-2.447,0-3.807,2.244-3.807,4.079
			c0,3.876,4.283,5.304,8.295,5.304C21.648,42.666,29.263,38.247,36.947,28.388z"/>
		<path fill="#9DD1D7" d="M81.352,34.644c-0.203-0.204-0.545,0.136-1.156,0.68c-0.748,0.68-1.291,1.155-2.176,1.768
			c-1.02,0.748-1.699,1.02-2.311,1.156c-0.273,0.067-1.021,0.136-1.293,0c2.107-1.904,3.672-3.876,3.875-5.508
			c0.137-1.02-0.203-1.836-0.814-2.38c-0.273-0.271-0.748-0.544-0.953-0.408c-0.203,0.137,0.068,0.477,0.068,1.088
			c0,0.341,0,1.088-0.203,1.564c-0.477,0.204-1.428,0.748-2.176,1.768c-0.885,1.156-1.156,2.176-1.225,2.855
			c-2.107,2.312-4.828,4.147-6.324,4.147c-0.746,0-1.02-0.476-0.951-1.155c0.137-1.36,1.904-4.012,3.943-5.983
			c1.904-1.836,3.264-2.992,4.896-3.74c0.543-0.271,0.748-0.271,0.748-0.407c0-0.272-0.545-0.272-1.021-0.272
			c-0.729,0.034-1.633,0.229-2.588,0.538c-0.049-0.262-0.658-0.266-1.219-0.266c-1.496,0-5.236,0.067-6.732,0.136
			c2.313-2.855,5.848-7.071,8.703-10.471c3.469-1.36,7.752-3.536,12.035-6.527c3.604-2.516,7.48-5.779,7.684-8.432
			c0.068-1.088-0.611-2.04-2.176-2.04c-2.992,0-8.498,4.147-13.123,8.636c-2.379,2.38-5.1,5.303-7.75,8.295
			c-1.156,0.271-2.789,0.34-3.943,0.34c-3.4,0-7.141-1.496-6.801-5.1c0.205-2.107,2.381-4.76,6.527-5.031
			c1.564-0.068,2.041,0.34,2.176,0.136c0.137-0.204-0.814-0.68-2.447-0.611c-4.828,0.136-7.955,3.535-8.092,6.187
			c-0.066,4.08,4.557,5.168,8.568,5.168c1.496,0,2.787-0.204,3.535-0.34c-2.721,3.06-5.576,6.527-8.295,9.859
			c-1.02,0.067-2.584,0.136-3.264,1.291c-0.617,0.976-0.73,1.953-1.012,3.163c-0.006-0.01,0-0.025-0.01-0.035
			c-0.137-0.136-0.34-0.067-0.885,0.408c-0.748,0.68-2.107,1.903-3.264,2.788c-1.496,1.155-2.447,1.699-3.264,2.107
			c-0.543,0.271-1.291,0.544-1.631,0.271c-0.273-0.203-0.273-0.611,0.271-1.495c0.34-0.544,1.156-1.7,2.245-2.992
			c1.088-1.359,2.516-2.924,2.719-4.147c0.137-1.156-0.68-1.836-2.107-1.836c-2.04,0-5.032,1.904-7.413,3.672
			c-2.379,1.768-4.623,3.739-6.254,5.1l-0.068-0.068c0.748-1.088,2.107-2.924,3.195-4.283c0.68-0.884,1.496-1.904,2.652-3.196
			c0.814-0.951,0.68-1.155-0.748-1.088c-1.361,0-2.176,0.681-3.129,1.7c-1.359,1.496-2.584,2.992-3.672,4.42
			s-2.516,3.671-2.99,4.555c-0.545,0.952-0.068,1.088,0.883,1.088c0.748,0,1.156-0.136,1.768-0.611
			c2.992-2.312,4.625-3.876,7.615-6.188c2.176-1.7,4.08-2.855,5.305-3.468c0.68-0.34,1.428-0.612,1.768-0.408
			c0.34,0.204,0.203,0.612-0.069,0.952c-0.816,0.952-1.836,2.107-2.855,3.332c-1.291,1.563-2.787,3.264-2.855,4.76
			c-0.068,1.155,0.748,1.768,2.039,1.768c2.107,0,4.76-1.7,6.12-2.72c1.428-1.088,3.469-2.924,4.08-3.536
			c0.225-0.224,0.381-0.399,0.479-0.54c-0.076,0.302-0.16,0.613-0.271,0.948c-2.109,2.447-6.664,8.432-9.452,12.171
			c-4.828,6.663-9.383,14.551-10.131,18.154c-0.34,1.699,0.135,2.516,1.088,2.651c0.883,0.136,1.902-0.408,2.924-1.156
			c2.719-1.972,5.711-6.187,7.955-9.994c4.147-6.936,6.459-13.599,7.547-17.203c2.516-3.264,5.031-6.459,7.547-9.654
			c1.225-0.068,4.283-0.137,7.139-0.137c0.016,0,0.029-0.001,0.045-0.001c-0.498,0.205-0.994,0.434-1.473,0.682
			c-1.563,0.815-3.059,2.04-4.215,3.331c-1.02,1.156-1.768,2.584-1.904,4.216c-0.068,1.972,1.225,2.992,3.332,2.992
			c2.787,0,5.982-1.972,7.752-3.332c0.406,0.272,1.223,0.272,1.836,0.136c0.68-0.136,1.494-0.476,2.582-1.224
			c0.885-0.612,1.564-1.224,2.176-1.768C81.148,35.255,81.555,34.847,81.352,34.644z M82.439,8.737
			c4.012-3.739,6.188-5.371,7.547-5.371c0.545,0,0.816,0.476,0.748,1.088c-0.271,1.836-3.4,5.235-5.916,7.275
			c-4.283,3.468-8.43,5.711-11.627,7.003C75.096,16.557,80.4,10.642,82.439,8.737z M47.695,57.148
			c-2.924,4.964-5.779,8.432-7.547,9.791c-0.816,0.681-1.293,0.884-1.701,0.681c-0.408-0.204-0.34-0.816,0-1.7
			c1.088-2.516,4.283-7.343,6.527-10.811c3.74-5.508,5.237-7.684,9.588-13.259C52.998,46.27,50.754,52.05,47.695,57.148z
			 M56.602,34.915c0.477-1.156,0.477-2.244,1.156-3.128c0.543-0.611,1.156-0.68,2.039-0.748
			C58.777,32.331,57.758,33.623,56.602,34.915z"/>
		<path fill="#9DD1D7" d="M97.604,34.915c-0.205-0.136-0.408,0-0.885,0.408c-0.748,0.68-1.496,1.292-2.313,1.292
			c-1.02,0-1.834-0.816-1.291-2.652c0.34-1.155,1.633-2.312,2.584-3.128c0.748-0.611,0.68-0.884,0.477-0.951
			c-0.34-0.137-1.225-0.137-1.564-0.068c-0.408,0.068-0.951,0.272-1.973,0.952c-1.154,0.748-2.242,1.632-3.33,2.516
			c-1.77,1.428-3.4,3.06-4.148,3.808l-0.137-0.136c0.545-0.748,1.496-1.972,2.041-2.72c0.883-1.225,1.428-2.108,1.428-2.924
			c0-0.748-0.408-1.496-1.701-1.496c-1.428,0-2.787,0.816-4.623,2.244c-1.223,0.951-2.719,2.38-3.535,3.127
			c-0.816,0.748-1.156,1.088-1.02,1.292c0.203,0.204,0.475,0,1.156-0.611c0.951-0.884,2.039-1.836,2.924-2.584
			c0.814-0.68,1.834-1.428,2.65-1.836c0.408-0.204,0.816-0.34,1.02-0.067c0.137,0.203,0,0.543-0.475,1.155
			c-0.748,0.952-1.973,2.516-2.721,3.536c-1.088,1.428-2.516,3.671-2.992,4.555c-0.543,0.952-0.066,1.088,0.885,1.088
			c0.748,0,1.291-0.136,1.768-0.611c2.652-2.584,4.896-4.691,6.867-6.392c0.545-0.476,1.904-1.496,2.924-2.243
			c-0.611,1.428-0.611,2.855-0.135,3.604c0.611,0.951,1.631,1.291,2.922,1.224c0.953-0.068,1.904-0.748,2.518-1.36
			C97.535,35.323,97.738,35.051,97.604,34.915z"/>
		<path fill="#9DD1D7" d="M171.314,22.54c0.814-1.02,0.406-1.768-0.477-1.768h-0.068c-1.291,0-2.313,0.271-2.719,1.292
			c-0.342,0.884-0.273,1.903,0.066,2.312C168.797,24.376,170.498,23.628,171.314,22.54z"/>
		<path fill="#9DD1D7" d="M183.008,34.644c-0.203-0.204-0.545,0.136-1.156,0.68c-0.748,0.68-1.291,1.155-2.176,1.768
			c-0.951,0.68-1.699,1.02-2.311,1.156c-0.273,0.067-1.021,0.136-1.293,0c2.039-1.836,3.672-3.876,3.875-5.508
			c0.137-1.02-0.203-1.904-0.814-2.38c-0.953-0.748-2.516-0.612-3.197-0.544c-1.631,0.204-3.67,0.816-5.643,1.836
			c-1.428,0.748-2.379,1.359-3.264,1.972c-0.68,0.476-1.631,1.224-2.107,1.7c-0.271,0.271-0.611,0.611-0.477,0.815
			c0.137,0.136,0.408,0,0.885-0.407c0.475-0.408,0.748-0.681,1.223-1.088l0.068,0.067c-0.553,0.582-1.012,1.215-1.369,1.854
			c-0.467,0.408-0.977,0.833-1.689,1.41c-1.156,0.952-2.313,1.7-2.992,2.04s-1.291,0.476-1.631,0.204
			c-0.273-0.272-0.205-0.748,0.203-1.496c0.408-0.68,1.225-1.903,2.381-3.332c1.359-1.699,2.447-2.991,3.67-4.352
			c0.816-0.884,0.682-1.088-0.748-1.088c-1.291,0-2.176,0.272-3.943,1.496c-1.631,1.088-4.078,3.128-4.826,3.808
			s-0.885,0.952-0.748,1.088c0.203,0.136,0.475-0.068,1.02-0.544c0.68-0.612,1.428-1.224,2.447-2.04
			c1.02-0.815,2.447-1.836,2.924-2.039c-0.631,0.552-1.787,1.725-2.912,3.021c-0.006-0.01-0.004-0.021-0.012-0.029
			c-0.205-0.204-0.613,0.204-0.953,0.476c-0.816,0.681-1.971,1.769-3.195,2.721c-1.088,0.884-2.244,1.631-3.061,2.039
			c-0.543,0.272-1.291,0.477-1.699,0.272c-0.543-0.272-0.34-1.224,0.068-1.972c1.225-2.38,3.535-5.848,4.895-7.479
			c1.564-0.068,2.652-0.068,4.148-0.068c0.543,0,1.156,0.068,1.225-0.34c0.066-0.34-0.408-0.408-0.953-0.408
			c-1.088,0-2.311,0-3.875,0.068c1.359-1.768,2.584-3.264,4.146-5.031c1.564-1.769,3.332-3.672,4.148-4.42
			c-0.068-0.204-0.34-0.408-1.02-0.408c-1.428,0-3.061,1.564-4.283,2.788c-1.564,1.496-4.285,4.487-6.393,7.071
			c-0.271,0-1.02,0-1.902,0.068c-1.088,0.067-1.77,0.136-1.836,0.407c-0.068,0.34,0.271,0.34,0.748,0.34
			c0.814,0,1.563-0.067,2.447-0.067c-1.293,1.155-3.129,2.788-4.965,4.419c-0.475,0.408-0.611,0.681-0.475,0.816
			c0.135,0.136,0.34,0.068,0.816-0.34c0.814-0.748,1.631-1.496,2.719-2.38c-0.506,0.661-0.98,1.313-1.416,1.945
			c-0.74,0.672-1.781,1.579-3.141,2.679c-1.088,0.884-2.379,1.768-3.059,2.107c-0.545,0.271-1.225,0.544-1.564,0.271
			c-0.271-0.203-0.271-0.748,0.205-1.563c0.611-1.088,1.496-2.244,2.379-3.332c1.428-1.768,2.924-3.468,3.809-4.487
			c0.68-0.815,0.543-1.156-0.885-1.088c-1.088,0-2.244,0.884-3.875,2.584c0.408-1.156-0.068-2.38-1.428-2.584
			c-1.768-0.271-4.148,0.544-6.801,1.904c-1.291,0.68-2.447,1.428-3.127,1.903s-1.836,1.428-2.039,1.632
			c-0.748,0.68-1.088,1.088-0.953,1.292c0.137,0.136,0.34,0,0.613-0.204c0.406-0.34,0.68-0.611,0.883-0.815l0.068,0.067
			c-0.516,0.6-0.902,1.137-1.197,1.637c-0.285,0.236-0.572,0.466-0.846,0.676c-1.496,1.155-2.447,1.699-3.264,2.107
			c-0.545,0.271-1.293,0.544-1.633,0.271c-0.271-0.203-0.271-0.68,0.273-1.495c0.406-0.612,1.154-1.7,2.242-2.992
			c1.088-1.359,2.516-2.924,2.721-4.147c0.135-1.088-0.611-1.836-2.107-1.836c-2.041,0-5.031,1.904-7.412,3.672
			c-2.379,1.768-4.828,3.875-6.391,5.235l-0.068-0.068c0.611-0.815,1.291-1.632,2.447-2.991c1.156-1.36,2.447-2.788,2.652-3.876
			c0.203-1.155-0.477-1.972-2.176-1.972c-1.973,0-4.963,1.904-7.344,3.672c-2.379,1.768-4.623,3.739-6.256,5.1l-0.066-0.068
			c0.746-1.088,2.176-2.924,3.195-4.283c0.883-1.225,1.428-2.108,1.428-2.924c0-0.748-0.408-1.496-1.701-1.496
			c-1.428,0-2.787,0.816-4.623,2.244c-1.223,0.951-2.719,2.38-3.535,3.127c-0.816,0.748-1.156,1.088-1.02,1.292
			c0.203,0.204,0.475,0,1.156-0.611c0.951-0.884,2.039-1.836,2.924-2.584c0.814-0.68,1.834-1.428,2.65-1.836
			c0.408-0.204,0.816-0.34,1.02-0.067c0.137,0.203,0,0.543-0.475,1.155c-0.748,0.952-1.701,2.108-2.721,3.536
			s-2.516,3.671-2.992,4.555c-0.543,0.952-0.066,1.088,0.885,1.088c0.748,0,1.156-0.136,1.768-0.611
			c2.992-2.312,4.623-3.876,7.615-6.188c2.041-1.632,4.08-2.855,5.305-3.468c0.746-0.34,1.291-0.544,1.699-0.408
			c0.408,0.137,0.34,0.612,0.068,0.952c-0.477,0.68-1.701,1.904-2.855,3.332c-1.225,1.496-2.924,3.875-3.605,5.303
			c-0.406,0.885-0.203,1.088,0.885,1.088c0.68,0,1.156-0.136,1.768-0.611c2.992-2.312,4.623-3.876,7.615-6.188
			c2.176-1.7,4.08-2.855,5.305-3.468c0.68-0.34,1.428-0.612,1.768-0.408s0.203,0.612-0.068,0.952
			c-0.885,1.02-1.836,2.107-2.855,3.332c-1.156,1.428-2.789,3.195-2.855,4.76c-0.068,1.155,0.68,1.768,2.039,1.768
			c2.107,0,4.76-1.7,6.119-2.72c0.232-0.178,0.486-0.38,0.742-0.59c-0.057,0.2-0.102,0.396-0.127,0.59
			c-0.271,2.176,1.293,2.787,2.789,2.72c2.582-0.137,5.711-2.38,7.479-3.943l0.068,0.067c-0.613,0.748-1.02,1.7-0.953,2.448
			c0.068,0.815,0.68,1.428,1.973,1.428c2.244,0,4.488-1.632,5.848-2.72c0.775-0.613,1.672-1.371,2.457-2.057
			c-0.623,1.109-1.031,2.113-1.098,2.94c-0.068,1.02,0.477,1.903,2.041,1.903c2.582,0,5.031-1.835,6.254-2.787
			c1.084-0.826,2.479-2.043,3.418-2.908c-0.357,0.461-0.693,0.918-0.969,1.344c-0.543,0.816-1.02,1.7-1.02,2.584
			c0,1.088,0.611,1.768,2.039,1.768c2.244,0,4.557-1.699,5.916-2.787c0.482-0.387,1.01-0.826,1.525-1.268
			c-0.131,0.412-0.215,0.816-0.234,1.199c-0.135,1.904,1.225,2.992,3.264,2.992h0.068c2.787,0,5.439-1.564,7.752-3.332
			c0.475,0.272,1.223,0.272,1.836,0.136c0.68-0.136,1.494-0.476,2.582-1.224c0.885-0.612,1.564-1.224,2.176-1.768
			C182.805,35.255,183.211,34.847,183.008,34.644z M136.432,37.635c-1.836,1.7-4.42,3.195-5.711,3.195
			c-0.477,0-0.816-0.204-0.885-0.68c-0.135-0.884,1.02-2.651,3.809-5.371c2.447-2.448,4.895-4.284,6.254-4.284
			c0.748,0,1.293,0.34,1.225,1.225C141.055,32.808,138.607,35.731,136.432,37.635z M174.576,37.431
			c-2.176,2.107-4.76,3.943-6.188,3.943h-0.068c-0.746,0-1.02-0.476-0.951-1.155c0.137-1.36,1.904-4.012,3.943-5.983
			c1.701-1.632,3.332-2.992,4.896-3.74c0.951-0.407,1.971-0.203,2.039,0.816c0.068,0.544-0.271,1.632-0.611,2.176
			C177.092,34.439,176.141,35.935,174.576,37.431z"/>
		<path fill="#9DD1D7" d="M205.174,34.711c-0.135-0.136-0.34-0.067-0.883,0.408c-0.748,0.68-2.107,1.903-3.264,2.788
			c-1.496,1.155-2.447,1.699-3.264,2.107c-0.545,0.271-1.293,0.544-1.633,0.271c-0.271-0.203-0.271-0.611,0.273-1.495
			c0.34-0.544,1.154-1.7,2.242-2.992c1.088-1.359,2.516-2.924,2.721-4.147c0.135-1.156-0.68-1.836-2.107-1.836
			c-2.041,0-5.031,1.904-7.412,3.672c-2.379,1.768-4.623,3.739-6.256,5.1l-0.066-0.068c0.746-1.088,2.176-2.924,3.195-4.283
			c0.883-1.225,1.428-2.108,1.428-2.924c0-0.748-0.408-1.496-1.701-1.496c-1.428,0-2.787,0.816-4.623,2.244
			c-1.223,0.951-2.719,2.38-3.535,3.127c-0.816,0.748-1.156,1.088-1.02,1.292c0.203,0.204,0.475,0,1.156-0.611
			c0.951-0.884,2.039-1.836,2.924-2.584c0.814-0.68,1.834-1.428,2.65-1.836c0.408-0.204,0.816-0.34,1.02-0.067
			c0.137,0.203,0,0.543-0.475,1.155c-0.748,0.952-1.973,2.516-2.721,3.536c-1.088,1.428-2.516,3.671-2.992,4.555
			c-0.543,0.952-0.066,1.088,0.885,1.088c0.748,0,1.156-0.136,1.768-0.611c2.992-2.312,4.623-3.876,7.615-6.188
			c2.176-1.7,4.08-2.855,5.305-3.468c0.68-0.34,1.428-0.612,1.768-0.408s0.203,0.612-0.068,0.952
			c-0.816,0.952-1.836,2.107-2.855,3.332c-1.293,1.563-2.789,3.264-2.855,4.76c-0.068,1.155,0.748,1.768,2.039,1.768
			c2.107,0,4.76-1.7,6.119-2.72c1.428-1.088,3.469-2.924,4.08-3.536C205.107,35.119,205.311,34.847,205.174,34.711z"/>
	</g>
	<g>
		<path fill="#9DD1D7" d="M36.947,28.388c1.904-2.516,4.42-6.527,6.119-8.975c1.836-2.584,4.148-5.304,6.325-6.256
			c0.477-0.204,0.68-0.952,0.137-1.088c-0.408-0.068-0.885,0.204-1.362,0.408c-1.428,0.611-3.672,0.951-6.254,1.563
			c-3.332,0.748-7.275,1.836-9.996,3.196C28.515,18.801,26,20.977,26,23.561c0,1.563,1.156,2.855,3.197,2.855
			c1.02,0,2.039-0.544,2.447-0.952c0.34-0.34,0.477-0.544,0.34-0.68s-0.34,0.136-0.68,0.34c-0.477,0.34-1.156,0.612-1.836,0.612
			c-1.02,0-1.836-0.612-1.836-1.769c0-2.039,2.447-4.352,4.42-5.507c2.516-1.496,5.779-2.652,9.994-3.74
			c2.107-0.544,4.148-0.951,5.645-1.359c-2.381,1.02-5.576,3.739-7.752,6.255c-1.836,2.176-4.76,5.983-6.936,8.703
			c-6.391,8.023-12.783,13.667-20.126,13.667c-2.72,0-4.556-0.952-4.556-2.244c0-1.02,0.748-1.495,1.292-2.039
			c0.748-0.612,1.224-1.36,1.292-2.04c0.137-1.428-0.884-2.38-2.313-2.38c-2.447,0-3.807,2.244-3.807,4.079
			c0,3.876,4.283,5.304,8.295,5.304C21.648,42.666,29.263,38.247,36.947,28.388z"/>
		<path fill="#9DD1D7" d="M81.352,34.644c-0.203-0.204-0.545,0.136-1.156,0.68c-0.748,0.68-1.291,1.155-2.176,1.768
			c-1.02,0.748-1.699,1.02-2.311,1.156c-0.273,0.067-1.021,0.136-1.293,0c2.107-1.904,3.672-3.876,3.875-5.508
			c0.137-1.02-0.203-1.836-0.814-2.38c-0.273-0.271-0.748-0.544-0.953-0.408c-0.203,0.137,0.068,0.477,0.068,1.088
			c0,0.341,0,1.088-0.203,1.564c-0.477,0.204-1.428,0.748-2.176,1.768c-0.885,1.156-1.156,2.176-1.225,2.855
			c-2.107,2.312-4.828,4.147-6.324,4.147c-0.746,0-1.02-0.476-0.951-1.155c0.137-1.36,1.904-4.012,3.943-5.983
			c1.904-1.836,3.264-2.992,4.896-3.74c0.543-0.271,0.748-0.271,0.748-0.407c0-0.272-0.545-0.272-1.021-0.272
			c-0.729,0.034-1.633,0.229-2.588,0.538c-0.049-0.262-0.658-0.266-1.219-0.266c-1.496,0-5.236,0.067-6.732,0.136
			c2.313-2.855,5.848-7.071,8.703-10.471c3.469-1.36,7.752-3.536,12.035-6.527c3.604-2.516,7.48-5.779,7.684-8.432
			c0.068-1.088-0.611-2.04-2.176-2.04c-2.992,0-8.498,4.147-13.123,8.636c-2.379,2.38-5.1,5.303-7.75,8.295
			c-1.156,0.271-2.789,0.34-3.943,0.34c-3.4,0-7.141-1.496-6.801-5.1c0.205-2.107,2.381-4.76,6.527-5.031
			c1.564-0.068,2.041,0.34,2.176,0.136c0.137-0.204-0.814-0.68-2.447-0.611c-4.828,0.136-7.955,3.535-8.092,6.187
			c-0.066,4.08,4.557,5.168,8.568,5.168c1.496,0,2.787-0.204,3.535-0.34c-2.721,3.06-5.576,6.527-8.295,9.859
			c-1.02,0.067-2.584,0.136-3.264,1.291c-0.617,0.976-0.73,1.953-1.012,3.163c-0.006-0.01,0-0.025-0.01-0.035
			c-0.137-0.136-0.34-0.067-0.885,0.408c-0.748,0.68-2.107,1.903-3.264,2.788c-1.496,1.155-2.447,1.699-3.264,2.107
			c-0.543,0.271-1.291,0.544-1.631,0.271c-0.273-0.203-0.273-0.611,0.271-1.495c0.34-0.544,1.156-1.7,2.245-2.992
			c1.088-1.359,2.516-2.924,2.719-4.147c0.137-1.156-0.68-1.836-2.107-1.836c-2.04,0-5.032,1.904-7.413,3.672
			c-2.379,1.768-4.623,3.739-6.254,5.1l-0.068-0.068c0.748-1.088,2.107-2.924,3.195-4.283c0.68-0.884,1.496-1.904,2.652-3.196
			c0.814-0.951,0.68-1.155-0.748-1.088c-1.361,0-2.176,0.681-3.129,1.7c-1.359,1.496-2.584,2.992-3.672,4.42
			s-2.516,3.671-2.99,4.555c-0.545,0.952-0.068,1.088,0.883,1.088c0.748,0,1.156-0.136,1.768-0.611
			c2.992-2.312,4.625-3.876,7.615-6.188c2.176-1.7,4.08-2.855,5.305-3.468c0.68-0.34,1.428-0.612,1.768-0.408
			c0.34,0.204,0.203,0.612-0.069,0.952c-0.816,0.952-1.836,2.107-2.855,3.332c-1.291,1.563-2.787,3.264-2.855,4.76
			c-0.068,1.155,0.748,1.768,2.039,1.768c2.107,0,4.76-1.7,6.12-2.72c1.428-1.088,3.469-2.924,4.08-3.536
			c0.225-0.224,0.381-0.399,0.479-0.54c-0.076,0.302-0.16,0.613-0.271,0.948c-2.109,2.447-6.664,8.432-9.452,12.171
			c-4.828,6.663-9.383,14.551-10.131,18.154c-0.34,1.699,0.135,2.516,1.088,2.651c0.883,0.136,1.902-0.408,2.924-1.156
			c2.719-1.972,5.711-6.187,7.955-9.994c4.147-6.936,6.459-13.599,7.547-17.203c2.516-3.264,5.031-6.459,7.547-9.654
			c1.225-0.068,4.283-0.137,7.139-0.137c0.016,0,0.029-0.001,0.045-0.001c-0.498,0.205-0.994,0.434-1.473,0.682
			c-1.563,0.815-3.059,2.04-4.215,3.331c-1.02,1.156-1.768,2.584-1.904,4.216c-0.068,1.972,1.225,2.992,3.332,2.992
			c2.787,0,5.982-1.972,7.752-3.332c0.406,0.272,1.223,0.272,1.836,0.136c0.68-0.136,1.494-0.476,2.582-1.224
			c0.885-0.612,1.564-1.224,2.176-1.768C81.148,35.255,81.555,34.847,81.352,34.644z M82.439,8.737
			c4.012-3.739,6.188-5.371,7.547-5.371c0.545,0,0.816,0.476,0.748,1.088c-0.271,1.836-3.4,5.235-5.916,7.275
			c-4.283,3.468-8.43,5.711-11.627,7.003C75.096,16.557,80.4,10.642,82.439,8.737z M47.695,57.148
			c-2.924,4.964-5.779,8.432-7.547,9.791c-0.816,0.681-1.293,0.884-1.701,0.681c-0.408-0.204-0.34-0.816,0-1.7
			c1.088-2.516,4.283-7.343,6.527-10.811c3.74-5.508,5.237-7.684,9.588-13.259C52.998,46.27,50.754,52.05,47.695,57.148z
			 M56.602,34.915c0.477-1.156,0.477-2.244,1.156-3.128c0.543-0.611,1.156-0.68,2.039-0.748
			C58.777,32.331,57.758,33.623,56.602,34.915z"/>
		<path fill="#9DD1D7" d="M97.604,34.915c-0.205-0.136-0.408,0-0.885,0.408c-0.748,0.68-1.496,1.292-2.313,1.292
			c-1.02,0-1.834-0.816-1.291-2.652c0.34-1.155,1.633-2.312,2.584-3.128c0.748-0.611,0.68-0.884,0.477-0.951
			c-0.34-0.137-1.225-0.137-1.564-0.068c-0.408,0.068-0.951,0.272-1.973,0.952c-1.154,0.748-2.242,1.632-3.33,2.516
			c-1.77,1.428-3.4,3.06-4.148,3.808l-0.137-0.136c0.545-0.748,1.496-1.972,2.041-2.72c0.883-1.225,1.428-2.108,1.428-2.924
			c0-0.748-0.408-1.496-1.701-1.496c-1.428,0-2.787,0.816-4.623,2.244c-1.223,0.951-2.719,2.38-3.535,3.127
			c-0.816,0.748-1.156,1.088-1.02,1.292c0.203,0.204,0.475,0,1.156-0.611c0.951-0.884,2.039-1.836,2.924-2.584
			c0.814-0.68,1.834-1.428,2.65-1.836c0.408-0.204,0.816-0.34,1.02-0.067c0.137,0.203,0,0.543-0.475,1.155
			c-0.748,0.952-1.973,2.516-2.721,3.536c-1.088,1.428-2.516,3.671-2.992,4.555c-0.543,0.952-0.066,1.088,0.885,1.088
			c0.748,0,1.291-0.136,1.768-0.611c2.652-2.584,4.896-4.691,6.867-6.392c0.545-0.476,1.904-1.496,2.924-2.243
			c-0.611,1.428-0.611,2.855-0.135,3.604c0.611,0.951,1.631,1.291,2.922,1.224c0.953-0.068,1.904-0.748,2.518-1.36
			C97.535,35.323,97.738,35.051,97.604,34.915z"/>
		<path fill="#9DD1D7" d="M171.314,22.54c0.814-1.02,0.406-1.768-0.477-1.768h-0.068c-1.291,0-2.313,0.271-2.719,1.292
			c-0.342,0.884-0.273,1.903,0.066,2.312C168.797,24.376,170.498,23.628,171.314,22.54z"/>
		<path fill="#9DD1D7" d="M183.008,34.644c-0.203-0.204-0.545,0.136-1.156,0.68c-0.748,0.68-1.291,1.155-2.176,1.768
			c-0.951,0.68-1.699,1.02-2.311,1.156c-0.273,0.067-1.021,0.136-1.293,0c2.039-1.836,3.672-3.876,3.875-5.508
			c0.137-1.02-0.203-1.904-0.814-2.38c-0.953-0.748-2.516-0.612-3.197-0.544c-1.631,0.204-3.67,0.816-5.643,1.836
			c-1.428,0.748-2.379,1.359-3.264,1.972c-0.68,0.476-1.631,1.224-2.107,1.7c-0.271,0.271-0.611,0.611-0.477,0.815
			c0.137,0.136,0.408,0,0.885-0.407c0.475-0.408,0.748-0.681,1.223-1.088l0.068,0.067c-0.553,0.582-1.012,1.215-1.369,1.854
			c-0.467,0.408-0.977,0.833-1.689,1.41c-1.156,0.952-2.313,1.7-2.992,2.04s-1.291,0.476-1.631,0.204
			c-0.273-0.272-0.205-0.748,0.203-1.496c0.408-0.68,1.225-1.903,2.381-3.332c1.359-1.699,2.447-2.991,3.67-4.352
			c0.816-0.884,0.682-1.088-0.748-1.088c-1.291,0-2.176,0.272-3.943,1.496c-1.631,1.088-4.078,3.128-4.826,3.808
			s-0.885,0.952-0.748,1.088c0.203,0.136,0.475-0.068,1.02-0.544c0.68-0.612,1.428-1.224,2.447-2.04
			c1.02-0.815,2.447-1.836,2.924-2.039c-0.631,0.552-1.787,1.725-2.912,3.021c-0.006-0.01-0.004-0.021-0.012-0.029
			c-0.205-0.204-0.613,0.204-0.953,0.476c-0.816,0.681-1.971,1.769-3.195,2.721c-1.088,0.884-2.244,1.631-3.061,2.039
			c-0.543,0.272-1.291,0.477-1.699,0.272c-0.543-0.272-0.34-1.224,0.068-1.972c1.225-2.38,3.535-5.848,4.895-7.479
			c1.564-0.068,2.652-0.068,4.148-0.068c0.543,0,1.156,0.068,1.225-0.34c0.066-0.34-0.408-0.408-0.953-0.408
			c-1.088,0-2.311,0-3.875,0.068c1.359-1.768,2.584-3.264,4.146-5.031c1.564-1.769,3.332-3.672,4.148-4.42
			c-0.068-0.204-0.34-0.408-1.02-0.408c-1.428,0-3.061,1.564-4.283,2.788c-1.564,1.496-4.285,4.487-6.393,7.071
			c-0.271,0-1.02,0-1.902,0.068c-1.088,0.067-1.77,0.136-1.836,0.407c-0.068,0.34,0.271,0.34,0.748,0.34
			c0.814,0,1.563-0.067,2.447-0.067c-1.293,1.155-3.129,2.788-4.965,4.419c-0.475,0.408-0.611,0.681-0.475,0.816
			c0.135,0.136,0.34,0.068,0.816-0.34c0.814-0.748,1.631-1.496,2.719-2.38c-0.506,0.661-0.98,1.313-1.416,1.945
			c-0.74,0.672-1.781,1.579-3.141,2.679c-1.088,0.884-2.379,1.768-3.059,2.107c-0.545,0.271-1.225,0.544-1.564,0.271
			c-0.271-0.203-0.271-0.748,0.205-1.563c0.611-1.088,1.496-2.244,2.379-3.332c1.428-1.768,2.924-3.468,3.809-4.487
			c0.68-0.815,0.543-1.156-0.885-1.088c-1.088,0-2.244,0.884-3.875,2.584c0.408-1.156-0.068-2.38-1.428-2.584
			c-1.768-0.271-4.148,0.544-6.801,1.904c-1.291,0.68-2.447,1.428-3.127,1.903s-1.836,1.428-2.039,1.632
			c-0.748,0.68-1.088,1.088-0.953,1.292c0.137,0.136,0.34,0,0.613-0.204c0.406-0.34,0.68-0.611,0.883-0.815l0.068,0.067
			c-0.516,0.6-0.902,1.137-1.197,1.637c-0.285,0.236-0.572,0.466-0.846,0.676c-1.496,1.155-2.447,1.699-3.264,2.107
			c-0.545,0.271-1.293,0.544-1.633,0.271c-0.271-0.203-0.271-0.68,0.273-1.495c0.406-0.612,1.154-1.7,2.242-2.992
			c1.088-1.359,2.516-2.924,2.721-4.147c0.135-1.088-0.611-1.836-2.107-1.836c-2.041,0-5.031,1.904-7.412,3.672
			c-2.379,1.768-4.828,3.875-6.391,5.235l-0.068-0.068c0.611-0.815,1.291-1.632,2.447-2.991c1.156-1.36,2.447-2.788,2.652-3.876
			c0.203-1.155-0.477-1.972-2.176-1.972c-1.973,0-4.963,1.904-7.344,3.672c-2.379,1.768-4.623,3.739-6.256,5.1l-0.066-0.068
			c0.746-1.088,2.176-2.924,3.195-4.283c0.883-1.225,1.428-2.108,1.428-2.924c0-0.748-0.408-1.496-1.701-1.496
			c-1.428,0-2.787,0.816-4.623,2.244c-1.223,0.951-2.719,2.38-3.535,3.127c-0.816,0.748-1.156,1.088-1.02,1.292
			c0.203,0.204,0.475,0,1.156-0.611c0.951-0.884,2.039-1.836,2.924-2.584c0.814-0.68,1.834-1.428,2.65-1.836
			c0.408-0.204,0.816-0.34,1.02-0.067c0.137,0.203,0,0.543-0.475,1.155c-0.748,0.952-1.701,2.108-2.721,3.536
			s-2.516,3.671-2.992,4.555c-0.543,0.952-0.066,1.088,0.885,1.088c0.748,0,1.156-0.136,1.768-0.611
			c2.992-2.312,4.623-3.876,7.615-6.188c2.041-1.632,4.08-2.855,5.305-3.468c0.746-0.34,1.291-0.544,1.699-0.408
			c0.408,0.137,0.34,0.612,0.068,0.952c-0.477,0.68-1.701,1.904-2.855,3.332c-1.225,1.496-2.924,3.875-3.605,5.303
			c-0.406,0.885-0.203,1.088,0.885,1.088c0.68,0,1.156-0.136,1.768-0.611c2.992-2.312,4.623-3.876,7.615-6.188
			c2.176-1.7,4.08-2.855,5.305-3.468c0.68-0.34,1.428-0.612,1.768-0.408s0.203,0.612-0.068,0.952
			c-0.885,1.02-1.836,2.107-2.855,3.332c-1.156,1.428-2.789,3.195-2.855,4.76c-0.068,1.155,0.68,1.768,2.039,1.768
			c2.107,0,4.76-1.7,6.119-2.72c0.232-0.178,0.486-0.38,0.742-0.59c-0.057,0.2-0.102,0.396-0.127,0.59
			c-0.271,2.176,1.293,2.787,2.789,2.72c2.582-0.137,5.711-2.38,7.479-3.943l0.068,0.067c-0.613,0.748-1.02,1.7-0.953,2.448
			c0.068,0.815,0.68,1.428,1.973,1.428c2.244,0,4.488-1.632,5.848-2.72c0.775-0.613,1.672-1.371,2.457-2.057
			c-0.623,1.109-1.031,2.113-1.098,2.94c-0.068,1.02,0.477,1.903,2.041,1.903c2.582,0,5.031-1.835,6.254-2.787
			c1.084-0.826,2.479-2.043,3.418-2.908c-0.357,0.461-0.693,0.918-0.969,1.344c-0.543,0.816-1.02,1.7-1.02,2.584
			c0,1.088,0.611,1.768,2.039,1.768c2.244,0,4.557-1.699,5.916-2.787c0.482-0.387,1.01-0.826,1.525-1.268
			c-0.131,0.412-0.215,0.816-0.234,1.199c-0.135,1.904,1.225,2.992,3.264,2.992h0.068c2.787,0,5.439-1.564,7.752-3.332
			c0.475,0.272,1.223,0.272,1.836,0.136c0.68-0.136,1.494-0.476,2.582-1.224c0.885-0.612,1.564-1.224,2.176-1.768
			C182.805,35.255,183.211,34.847,183.008,34.644z M136.432,37.635c-1.836,1.7-4.42,3.195-5.711,3.195
			c-0.477,0-0.816-0.204-0.885-0.68c-0.135-0.884,1.02-2.651,3.809-5.371c2.447-2.448,4.895-4.284,6.254-4.284
			c0.748,0,1.293,0.34,1.225,1.225C141.055,32.808,138.607,35.731,136.432,37.635z M174.576,37.431
			c-2.176,2.107-4.76,3.943-6.188,3.943h-0.068c-0.746,0-1.02-0.476-0.951-1.155c0.137-1.36,1.904-4.012,3.943-5.983
			c1.701-1.632,3.332-2.992,4.896-3.74c0.951-0.407,1.971-0.203,2.039,0.816c0.068,0.544-0.271,1.632-0.611,2.176
			C177.092,34.439,176.141,35.935,174.576,37.431z"/>
		<path fill="#9DD1D7" d="M205.174,34.711c-0.135-0.136-0.34-0.067-0.883,0.408c-0.748,0.68-2.107,1.903-3.264,2.788
			c-1.496,1.155-2.447,1.699-3.264,2.107c-0.545,0.271-1.293,0.544-1.633,0.271c-0.271-0.203-0.271-0.611,0.273-1.495
			c0.34-0.544,1.154-1.7,2.242-2.992c1.088-1.359,2.516-2.924,2.721-4.147c0.135-1.156-0.68-1.836-2.107-1.836
			c-2.041,0-5.031,1.904-7.412,3.672c-2.379,1.768-4.623,3.739-6.256,5.1l-0.066-0.068c0.746-1.088,2.176-2.924,3.195-4.283
			c0.883-1.225,1.428-2.108,1.428-2.924c0-0.748-0.408-1.496-1.701-1.496c-1.428,0-2.787,0.816-4.623,2.244
			c-1.223,0.951-2.719,2.38-3.535,3.127c-0.816,0.748-1.156,1.088-1.02,1.292c0.203,0.204,0.475,0,1.156-0.611
			c0.951-0.884,2.039-1.836,2.924-2.584c0.814-0.68,1.834-1.428,2.65-1.836c0.408-0.204,0.816-0.34,1.02-0.067
			c0.137,0.203,0,0.543-0.475,1.155c-0.748,0.952-1.973,2.516-2.721,3.536c-1.088,1.428-2.516,3.671-2.992,4.555
			c-0.543,0.952-0.066,1.088,0.885,1.088c0.748,0,1.156-0.136,1.768-0.611c2.992-2.312,4.623-3.876,7.615-6.188
			c2.176-1.7,4.08-2.855,5.305-3.468c0.68-0.34,1.428-0.612,1.768-0.408s0.203,0.612-0.068,0.952
			c-0.816,0.952-1.836,2.107-2.855,3.332c-1.293,1.563-2.789,3.264-2.855,4.76c-0.068,1.155,0.748,1.768,2.039,1.768
			c2.107,0,4.76-1.7,6.119-2.72c1.428-1.088,3.469-2.924,4.08-3.536C205.107,35.119,205.311,34.847,205.174,34.711z"/>
	</g>
</g>
</svg>
