<?xml version="1.0" encoding="utf-8"?>
<!-- Generator: Adobe Illustrator 16.0.0, SVG Export Plug-In . SVG Version: 6.00 Build 0)  -->
<!DOCTYPE svg PUBLIC "-//W3C//DTD SVG 1.1//EN" "http://www.w3.org/Graphics/SVG/1.1/DTD/svg11.dtd">
<svg version="1.1" class="face_06" id="" xmlns="http://www.w3.org/2000/svg" xmlns:xlink="http://www.w3.org/1999/xlink" x="0px" y="0px"
	 width="34px" height="57px" viewBox="0 0 34 57" enable-background="new 0 0 34 57" xml:space="preserve">
<g>
	<line fill="none" stroke="#FFFFFF" stroke-width="2" stroke-miterlimit="10" x1="10" y1="46" x2="23" y2="46"/>
	<polyline fill="none" stroke="#FFFFFF" stroke-width="2" stroke-miterlimit="10" points="9.631,35.638 12.068,38.075 9.714,40.429 "/>
	<polyline fill="none" stroke="#FFFFFF" stroke-width="2" stroke-miterlimit="10" points="14.521,35.638 12.084,38.075 14.438,40.429 "/>
	<polyline fill="none" stroke="#FFFFFF" stroke-width="2" stroke-miterlimit="10" points="19.48,35.638 21.917,38.075 19.563,40.429 "/>
	<polyline fill="none" stroke="#FFFFFF" stroke-width="2" stroke-miterlimit="10" points="24.37,35.638 21.933,38.075 24.287,40.429 "/>
	<path fill="#FFFFFF" d="M23,48.038c0,0.846-0.686,1.531-1.531,1.531l0,0c-0.846,0-1.531-0.686-1.531-1.531v-2.094H23V48.038z"/>
	<path fill="#FFFFFF" d="M33.52,40.679v-0.234c0-5.951-2.246-10.236-6.207-11.654v-3.385c0-0.484-0.332-0.902-0.803-1.01
		c-2.727-0.623-5.322-0.938-7.721-0.938c-12.652,0-18.316,8.529-18.316,16.982c0,8.879,7.416,16.102,16.531,16.102
		c9.01,0,16.35-7.055,16.521-15.783C33.528,40.731,33.52,40.706,33.52,40.679z M31.452,40.44c0,7.738-6.48,14.033-14.457,14.033
		C9.02,54.474,2.54,48.179,2.54,40.44c0-7.424,5.025-14.914,16.25-14.914c2.008,0,4.176,0.238,6.457,0.711v3.318
		c0,0.475,0.313,0.889,0.771,1.004c3.445,0.863,5.434,4.549,5.434,9.865C31.452,40.431,31.452,40.437,31.452,40.44z"/>
</g>

</svg>
