<?xml version="1.0" encoding="utf-8"?>
<!-- Generator: Adobe Illustrator 16.0.0, SVG Export Plug-In . SVG Version: 6.00 Build 0)  -->
<!DOCTYPE svg PUBLIC "-//W3C//DTD SVG 1.1//EN" "http://www.w3.org/Graphics/SVG/1.1/DTD/svg11.dtd">
<svg version="1.1" class="face_04" id="" xmlns="http://www.w3.org/2000/svg" xmlns:xlink="http://www.w3.org/1999/xlink" x="0px" y="0px"
	 width="34px" height="34px" viewBox="0 0 34 34" enable-background="new 0 0 34 34" xml:space="preserve">
<g>
	<path fill="none" stroke="#FFFFFF" stroke-width="1.6499" stroke-miterlimit="10" d="M12.623,24.045 c0.834-1.563,2.48-2.628,4.377-2.628c1.896,0,3.541,1.063,4.377,2.628"/>
	<path fill="#FFFFFF" d="M33.521,17.68v-0.235c0-5.951-2.248-10.236-6.207-11.654V2.405c0-0.484-0.332-0.902-0.803-1.01
		c-2.728-0.623-5.322-0.938-7.722-0.938C6.138,0.458,0.474,8.987,0.474,17.44c0,8.878,7.416,16.102,16.531,16.102
		c9.011,0,16.351-7.056,16.521-15.783C33.527,17.73,33.521,17.706,33.521,17.68z M31.452,17.44
		c0,7.738-6.479,14.033-14.457,14.033C9.02,31.473,2.54,25.178,2.54,17.44c0-7.424,5.024-14.914,16.25-14.914
		c2.008,0,4.176,0.238,6.457,0.711v3.318c0,0.475,0.313,0.889,0.771,1.004c3.445,0.863,5.435,4.549,5.435,9.865V17.44z"/>
</g>
<g>
	<rect x="11.112" y="14.434" fill="#FFFFFF" width="3.926" height="1.2"/>
	<rect x="18.961" y="14.434" fill="#FFFFFF" width="3.926" height="1.2"/>
</g>
</svg>
