<?xml version="1.0" encoding="utf-8"?>
<!-- Generator: Adobe Illustrator 16.0.0, SVG Export Plug-In . SVG Version: 6.00 Build 0)  -->
<!DOCTYPE svg PUBLIC "-//W3C//DTD SVG 1.1//EN" "http://www.w3.org/Graphics/SVG/1.1/DTD/svg11.dtd">
<svg version="1.1" class="face_06" id="" xmlns="http://www.w3.org/2000/svg" xmlns:xlink="http://www.w3.org/1999/xlink" x="0px" y="0px"
	 width="34px" height="57px" viewBox="0 0 34 57" enable-background="new 0 0 34 57" xml:space="preserve">
<g class="ghost">
	<path fill="none" stroke="#FFFFFF" stroke-width="0.9753" stroke-linecap="round" stroke-linejoin="round" stroke-miterlimit="10" d="
		M16.254,9.368c0-0.011-0.003-0.022-0.003-0.033V9.238c0-2.466-0.93-4.24-2.57-4.828V3.008c0-0.2-0.138-0.374-0.333-0.417
		c-1.13-0.258-2.205-0.389-3.199-0.389c-5.241,0-7.587,3.533-7.587,7.035c0,1.507,0.522,2.894,1.39,4.012
		c0.339,0.914,0.481,2.265-0.881,3.368c-2.842,2.3-0.209,4.675,1.283,5.585c0,0-1.447-3.238,1.892-3.348
		c4.599-0.149,8.648-3.975,9.59-7.334C16.088,10.845,16.239,10.124,16.254,9.368z"/>
	<line fill="none" stroke="#FFFFFF" stroke-miterlimit="10" x1="7" y1="10.5" x2="12" y2="10.5"/>
	<polyline fill="none" stroke="#FFFFFF" stroke-width="0.8866" stroke-miterlimit="10" points="6.147,5.742 7.227,6.822 6.184,7.866"/>
	<polyline fill="none" stroke="#FFFFFF" stroke-width="0.8866" stroke-miterlimit="10" points="8.314,5.742 7.234,6.822 8.278,7.866 "/>
	<polyline fill="none" stroke="#FFFFFF" stroke-width="0.8866" stroke-miterlimit="10" points="10.513,5.742 11.593,6.822 10.55,7.866 "/>
	<polyline fill="none" stroke="#FFFFFF" stroke-width="0.8866" stroke-miterlimit="10" points="12.681,5.742 11.6,6.822 12.644,7.866 "/>
	<path fill="#FFFFFF" d="M12.288,11.239c0,0.375-0.304,0.679-0.679,0.679l0,0c-0.375,0-0.679-0.304-0.679-0.679v-0.928h1.357V11.239z"/>
</g>
</svg>
