<?xml version="1.0" encoding="utf-8"?>
<!-- Generator: Adobe Illustrator 16.0.0, SVG Export Plug-In . SVG Version: 6.00 Build 0)  -->
<!DOCTYPE svg PUBLIC "-//W3C//DTD SVG 1.1//EN" "http://www.w3.org/Graphics/SVG/1.1/DTD/svg11.dtd">
<svg version="1.1" id="icon_mountain" xmlns="http://www.w3.org/2000/svg" xmlns:xlink="http://www.w3.org/1999/xlink" x="0px" y="0px"
	 width="40px" height="40px" viewBox="0 0 40 40" enable-background="new 0 0 40 40" xml:space="preserve">
<g>
	<g>
		<path fill="#62B739" d="M20.001,37.8c8.79,0,16.073-6.379,17.52-14.756h-2.609L23.969,7.374c-0.369-0.381-0.596-0.428-0.846-0.471
			c-0.502-0.041-0.652,0.108-0.912,0.324l-10.54,15.816H2.48C3.925,31.421,11.208,37.8,20.001,37.8z"/>
	</g>
	<g>
		<path fill="#FFFFFF" d="M23.135,13.581l-8.059,11.514H2.906c0.137,0.458,0.301,0.904,0.471,1.346h14.52l4.917-7.908l5.598,7.908
			h8.127c0.172-0.441,0.334-0.888,0.471-1.346h-5.906L23.135,13.581z"/>
		<path fill="#FFFFFF" d="M23.047,11.562l9.08,12.799h5.07c0.109-0.434,0.205-0.871,0.281-1.316h-2.609L23.926,7.374
			c-0.369-0.381-0.596-0.428-0.846-0.471c-0.502-0.041-0.652,0.108-0.912,0.324l-10.54,15.816H2.437
			c0.076,0.445,0.172,0.883,0.281,1.316h11.723L23.047,11.562z"/>
		<path fill="#FFFFFF" d="M18.218,11.915l-1.848-1.963c-0.363-0.128-0.678-0.076-1.082,0.35c-2.344,3.514-4.686,7.029-7.029,10.543
			H2.201c0.02,0.443,0.049,0.885,0.102,1.32h8.594L18.218,11.915z"/>
	</g>
</g>
</svg>
