<?xml version="1.0" encoding="utf-8"?>
<!-- Generator: Adobe Illustrator 16.0.0, SVG Export Plug-In . SVG Version: 6.00 Build 0)  -->
<!DOCTYPE svg PUBLIC "-//W3C//DTD SVG 1.1//EN" "http://www.w3.org/Graphics/SVG/1.1/DTD/svg11.dtd">
<svg version="1.1" id="icon_page" xmlns="http://www.w3.org/2000/svg" xmlns:xlink="http://www.w3.org/1999/xlink" x="0px" y="0px"
	 width="40px" height="40px" viewBox="0 0 40 40" enable-background="new 0 0 40 40" xml:space="preserve">
<g>
	<g>
		<path fill="#504F4D" d="M37.469,7.712c-0.248-0.973-0.707-1.771-1.366-2.314C35.447,4.85,34.629,4.61,33.85,4.614H11.301
			c-0.521,0-1.053,0.1-1.551,0.335C9.001,5.3,8.381,5.956,7.998,6.802c-0.385,0.848-0.57,1.879-0.57,3.137v15.162H3.396
			c-0.296,0-0.586,0.119-0.79,0.327c-0.209,0.204-0.329,0.494-0.329,0.788v4.447c0,2.608,2.114,4.723,4.726,4.723h20.478
			c2.608,0,4.722-2.114,4.726-4.723V13.769h4.403c0.296,0,0.583-0.119,0.791-0.328c0.208-0.204,0.324-0.493,0.324-0.787V9.938
			C37.724,9.101,37.639,8.364,37.469,7.712z M5.24,32.427c-0.455-0.455-0.733-1.072-0.733-1.764V27.33h18.247v3.333
			c0,0.918,0.27,1.771,0.717,2.496H7.002C6.313,33.155,5.695,32.882,5.24,32.427z M29.977,30.663c0,0.691-0.277,1.309-0.733,1.764
			c-0.455,0.455-1.073,0.729-1.764,0.732c-0.689-0.004-1.308-0.277-1.763-0.732s-0.732-1.072-0.732-1.764v-4.447
			c0-0.294-0.116-0.584-0.324-0.788c-0.209-0.208-0.494-0.327-0.787-0.327H9.652V9.938c0-0.688,0.074-1.239,0.186-1.664
			c0.166-0.64,0.41-0.977,0.633-1.16c0.224-0.182,0.467-0.268,0.83-0.271h19.231c-0.374,0.842-0.556,1.856-0.556,3.096V30.663z
			 M35.494,11.538h-3.289v-1.6c0-0.688,0.07-1.239,0.18-1.664c0.168-0.64,0.406-0.977,0.631-1.16
			c0.225-0.182,0.471-0.268,0.834-0.271c0.238,0,0.432,0.047,0.594,0.125c0.248,0.115,0.467,0.309,0.68,0.76
			c0.208,0.455,0.371,1.176,0.371,2.211V11.538z"/>
	</g>
</g>
</svg>
