<?xml version="1.0" encoding="utf-8"?>
<!-- Generator: Adobe Illustrator 16.0.0, SVG Export Plug-In . SVG Version: 6.00 Build 0)  -->
<!DOCTYPE svg PUBLIC "-//W3C//DTD SVG 1.1//EN" "http://www.w3.org/Graphics/SVG/1.1/DTD/svg11.dtd">
<svg version="1.1" id="icon_view" xmlns="http://www.w3.org/2000/svg" xmlns:xlink="http://www.w3.org/1999/xlink" x="0px" y="0px"
	 width="40px" height="40px" viewBox="0 0 40 40" enable-background="new 0 0 40 40" xml:space="preserve">

	<path fill="#024D65" d="M32.947,11.826H7.698c-1.035,0-1.875,1.277-1.875,2.313v19.688h29V14.139
		C34.822,13.104,33.982,11.826,32.947,11.826z M31.307,13.982c0.647,0,1.172,0.525,1.172,1.172c0,0.648-0.524,1.172-1.172,1.172
		c-0.648,0-1.172-0.523-1.172-1.172C30.135,14.508,30.658,13.982,31.307,13.982z M27.557,13.982c0.646,0,1.172,0.525,1.172,1.172
		c0,0.648-0.525,1.172-1.172,1.172c-0.648,0-1.172-0.523-1.172-1.172C26.385,14.508,26.908,13.982,27.557,13.982z M23.807,13.982
		c0.647,0,1.172,0.525,1.172,1.172c0,0.648-0.524,1.172-1.172,1.172c-0.648,0-1.172-0.523-1.172-1.172
		C22.635,14.508,23.158,13.982,23.807,13.982z M32.822,31.826h-25v-14h25V31.826z"/>
	<rect x="7.823" y="17.826" fill="#FFFFFF" width="25" height="14"/>
	<circle fill="#FFFFFF" cx="23.807" cy="15.154" r="1.172"/>
	<circle fill="#FFFFFF" cx="27.557" cy="15.154" r="1.172"/>
	<circle fill="#FFFFFF" cx="31.307" cy="15.154" r="1.172"/>


</svg>
