<?xml version="1.0" encoding="utf-8"?>
<!-- Generator: Adobe Illustrator 16.0.0, SVG Export Plug-In . SVG Version: 6.00 Build 0)  -->
<!DOCTYPE svg PUBLIC "-//W3C//DTD SVG 1.1//EN" "http://www.w3.org/Graphics/SVG/1.1/DTD/svg11.dtd">
<svg version="1.1" id="icon_earth" xmlns="http://www.w3.org/2000/svg" xmlns:xlink="http://www.w3.org/1999/xlink" x="0px" y="0px"
	 width="40px" height="40px" viewBox="0 0 40 40" enable-background="new 0 0 40 40" xml:space="preserve">
<linearGradient id="SVGID_1_" gradientUnits="userSpaceOnUse" x1="3.2339" y1="20" x2="36.7656" y2="20">
	<stop  offset="0" style="stop-color:#555555"/>
	<stop  offset="0.4847" style="stop-color:#5D5E5E"/>
</linearGradient>
<path fill="url(#SVGID_1_)" d="M35.178,24.805c-0.615,1.945-1.602,3.766-2.926,5.357c-0.008-0.006-0.016-0.012-0.023-0.016
	c-0.023-0.018-0.047-0.035-0.068-0.049c-0.072-0.053-0.146-0.102-0.221-0.152c-0.031-0.02-0.061-0.041-0.092-0.061
	c-0.074-0.049-0.148-0.098-0.221-0.146c-0.025-0.014-0.049-0.029-0.072-0.047c-0.098-0.059-0.195-0.121-0.293-0.182
	c-0.023-0.014-0.045-0.029-0.066-0.041c-0.078-0.047-0.154-0.094-0.236-0.141c-0.031-0.02-0.063-0.039-0.094-0.057
	c-0.074-0.045-0.15-0.086-0.227-0.129c-0.027-0.014-0.053-0.031-0.08-0.047c-0.102-0.055-0.203-0.111-0.305-0.166
	c-0.021-0.008-0.039-0.02-0.061-0.029c-0.082-0.045-0.166-0.09-0.25-0.133c-0.035-0.016-0.068-0.031-0.1-0.049
	c-0.078-0.039-0.154-0.076-0.232-0.115c-0.029-0.014-0.059-0.027-0.09-0.043c-0.104-0.049-0.209-0.1-0.314-0.148
	c-0.016-0.006-0.033-0.014-0.049-0.021c-0.09-0.041-0.182-0.082-0.273-0.121c-0.035-0.016-0.068-0.029-0.102-0.043
	c-0.08-0.035-0.158-0.07-0.24-0.102c-0.031-0.014-0.061-0.027-0.094-0.039c-0.107-0.043-0.215-0.086-0.322-0.127
	c0.016-0.047,0.033-0.092,0.049-0.135c0.014-0.039,0.029-0.078,0.041-0.119c0.045-0.125,0.09-0.25,0.131-0.377
	c0.008-0.02,0.016-0.041,0.021-0.063c0.104-0.313,0.201-0.629,0.289-0.947c0.004-0.008,0.006-0.02,0.01-0.029
	c0.041-0.148,0.08-0.299,0.119-0.449c0.004-0.018,0.008-0.035,0.014-0.053c0.039-0.156,0.076-0.313,0.111-0.471
	c0.002-0.004,0.002-0.004,0.002-0.006c0.037-0.17,0.076-0.336,0.109-0.506h-1.553c-0.014,0.059-0.027,0.119-0.041,0.18
	c-0.016,0.061-0.029,0.125-0.043,0.188c-0.018,0.064-0.033,0.131-0.049,0.195c-0.018,0.066-0.033,0.133-0.049,0.195
	s-0.033,0.123-0.049,0.186c-0.021,0.072-0.041,0.146-0.063,0.221c-0.014,0.051-0.029,0.102-0.043,0.152
	c-0.035,0.123-0.074,0.246-0.113,0.371c-0.002,0.01-0.006,0.023-0.01,0.033c-0.035,0.115-0.074,0.232-0.111,0.346
	c-0.014,0.035-0.025,0.072-0.039,0.109c-0.031,0.09-0.063,0.18-0.096,0.271c-0.014,0.037-0.029,0.076-0.043,0.115
	c-0.01,0.033-0.023,0.064-0.035,0.094c-0.035-0.01-0.068-0.02-0.104-0.029c-0.049-0.012-0.096-0.027-0.145-0.041
	c-0.09-0.027-0.184-0.053-0.275-0.078c-0.043-0.012-0.088-0.025-0.133-0.037c-0.121-0.029-0.24-0.064-0.361-0.092
	c-0.016-0.006-0.031-0.01-0.047-0.014c-0.137-0.033-0.273-0.064-0.412-0.096c-0.041-0.01-0.084-0.02-0.127-0.027
	c-0.098-0.021-0.193-0.043-0.293-0.064c-0.051-0.01-0.1-0.018-0.15-0.029c-0.094-0.018-0.188-0.033-0.283-0.051
	c-0.047-0.012-0.098-0.02-0.145-0.029c-0.111-0.02-0.223-0.037-0.332-0.055c-0.031-0.006-0.063-0.01-0.094-0.016
	c-0.143-0.023-0.285-0.043-0.43-0.063c-0.037-0.008-0.074-0.01-0.113-0.014c-0.105-0.016-0.215-0.031-0.32-0.043
	c-0.051-0.006-0.102-0.014-0.152-0.018c-0.098-0.012-0.195-0.021-0.295-0.029c-0.049-0.008-0.102-0.012-0.152-0.018
	c-0.107-0.01-0.215-0.02-0.322-0.025c-0.041-0.006-0.082-0.01-0.123-0.014c-0.146-0.01-0.293-0.02-0.441-0.027
	c-0.029,0-0.057-0.004-0.084-0.006c-0.121-0.006-0.244-0.01-0.366-0.018c-0.051-0.002-0.1-0.004-0.15-0.006
	c-0.06,0-0.117-0.002-0.177-0.004v-1.715H19.14v1.717c-0.045,0.002-0.089,0.004-0.135,0.006c-0.051,0.002-0.104,0.006-0.154,0.008
	c-0.106,0.004-0.215,0.008-0.32,0.014c-0.043,0.004-0.084,0.006-0.127,0.008c-0.146,0.008-0.293,0.02-0.439,0.029
	c-0.021,0.002-0.041,0.004-0.063,0.008c-0.125,0.006-0.25,0.02-0.373,0.031c-0.049,0.004-0.094,0.01-0.145,0.014
	c-0.098,0.01-0.197,0.021-0.297,0.031c-0.051,0.006-0.1,0.014-0.15,0.02c-0.102,0.012-0.205,0.023-0.308,0.039
	c-0.04,0.004-0.083,0.01-0.124,0.018c-0.143,0.018-0.283,0.041-0.426,0.063c-0.015,0.002-0.029,0.004-0.047,0.008
	c-0.125,0.018-0.249,0.041-0.375,0.064c-0.044,0.006-0.09,0.016-0.135,0.021c-0.096,0.021-0.191,0.039-0.288,0.059
	c-0.048,0.008-0.097,0.02-0.144,0.027c-0.1,0.02-0.195,0.041-0.293,0.063c-0.043,0.008-0.084,0.018-0.127,0.027
	c-0.135,0.031-0.272,0.061-0.406,0.096c-0.012,0.002-0.021,0.004-0.031,0.008c-0.123,0.029-0.25,0.064-0.375,0.096
	c-0.043,0.012-0.086,0.025-0.128,0.035c-0.093,0.027-0.185,0.053-0.276,0.08c-0.049,0.012-0.094,0.027-0.141,0.039
	c-0.033,0.01-0.066,0.02-0.1,0.029c-0.014-0.029-0.025-0.061-0.037-0.096c-0.014-0.037-0.027-0.074-0.043-0.113
	c-0.031-0.092-0.064-0.184-0.098-0.275c-0.01-0.035-0.023-0.07-0.034-0.104c-0.04-0.117-0.077-0.236-0.116-0.354
	c-0.002-0.008-0.006-0.02-0.008-0.027c-0.039-0.125-0.076-0.248-0.111-0.373c-0.016-0.049-0.029-0.098-0.043-0.146
	c-0.021-0.076-0.043-0.152-0.064-0.229c-0.016-0.059-0.029-0.117-0.046-0.178c-0.019-0.066-0.036-0.135-0.052-0.201
	c-0.016-0.064-0.031-0.129-0.047-0.193c-0.016-0.066-0.031-0.133-0.047-0.203c-0.012-0.055-0.025-0.109-0.037-0.164h-1.555
	c0.033,0.168,0.07,0.336,0.109,0.504c0,0.004,0.002,0.006,0.004,0.012c0.033,0.156,0.072,0.311,0.109,0.467
	c0.006,0.018,0.01,0.037,0.016,0.055c0.038,0.15,0.076,0.299,0.119,0.447c0.002,0.01,0.004,0.021,0.008,0.029
	c0.088,0.318,0.186,0.635,0.289,0.947c0.008,0.021,0.014,0.043,0.021,0.063c0.042,0.127,0.084,0.252,0.131,0.379
	c0.014,0.039,0.027,0.078,0.043,0.117c0.016,0.043,0.031,0.088,0.047,0.135c-0.104,0.039-0.207,0.08-0.311,0.123
	c-0.031,0.012-0.062,0.023-0.092,0.035c-0.08,0.035-0.158,0.068-0.236,0.102c-0.033,0.014-0.066,0.029-0.1,0.043
	c-0.09,0.037-0.178,0.078-0.264,0.119c-0.02,0.006-0.038,0.016-0.057,0.023c-0.104,0.047-0.207,0.096-0.312,0.146
	c-0.028,0.012-0.057,0.025-0.085,0.041c-0.078,0.035-0.154,0.074-0.23,0.113c-0.031,0.014-0.064,0.031-0.098,0.049
	c-0.084,0.041-0.166,0.086-0.25,0.127c-0.02,0.012-0.039,0.021-0.058,0.031c-0.101,0.055-0.201,0.107-0.3,0.164
	c-0.029,0.016-0.053,0.029-0.08,0.045c-0.076,0.043-0.15,0.084-0.226,0.129c-0.03,0.016-0.062,0.035-0.093,0.053
	c-0.079,0.047-0.158,0.094-0.236,0.141c-0.021,0.014-0.039,0.023-0.061,0.035C8.59,29.539,8.494,29.6,8.398,29.66
	c-0.025,0.016-0.049,0.031-0.072,0.047c-0.073,0.047-0.148,0.096-0.221,0.143c-0.029,0.02-0.059,0.039-0.088,0.061
	c-0.074,0.051-0.149,0.102-0.224,0.15c-0.021,0.016-0.041,0.029-0.062,0.043c-0.006,0.006-0.016,0.008-0.021,0.014
	c-1.305-1.58-2.279-3.387-2.891-5.313H3.234c0.721,2.521,2.008,4.865,3.793,6.85l0,0c1.608,1.789,3.529,3.203,5.706,4.201
	c2.255,1.035,4.663,1.566,7.161,1.582h0.004c0.014,0,0.025,0,0.038,0c0.021,0.002,0.042,0.002,0.063,0.002
	c2.508,0,4.928-0.521,7.194-1.547c2.188-0.994,4.117-2.402,5.738-4.191c1.807-1.996,3.109-4.357,3.834-6.896H35.178z M8.744,31.254
	c0.018-0.012,0.033-0.023,0.053-0.037C8.905,31.145,9.015,31.074,9.125,31c0.018-0.01,0.035-0.023,0.053-0.035
	c0.127-0.08,0.254-0.158,0.382-0.234c0.032-0.021,0.065-0.039,0.097-0.059c0.109-0.064,0.217-0.125,0.326-0.189
	c0.025-0.014,0.053-0.029,0.08-0.045c0.129-0.074,0.264-0.145,0.395-0.213c0.031-0.018,0.062-0.033,0.092-0.049
	c0.109-0.057,0.223-0.113,0.332-0.168c0.033-0.016,0.064-0.031,0.1-0.047c0.136-0.066,0.271-0.133,0.41-0.193
	c0.023-0.012,0.049-0.021,0.073-0.033c0.118-0.053,0.237-0.102,0.354-0.154c0.037-0.016,0.074-0.031,0.109-0.045
	c0.143-0.059,0.284-0.115,0.426-0.172c0.002,0,0.006-0.002,0.006-0.002c0.016,0.029,0.029,0.057,0.043,0.086
	c0.021,0.049,0.045,0.096,0.068,0.145c0.021,0.043,0.043,0.086,0.063,0.129c0.023,0.047,0.047,0.094,0.068,0.139
	c0.023,0.043,0.045,0.088,0.066,0.131c0.023,0.045,0.047,0.09,0.07,0.135c0.023,0.043,0.045,0.084,0.066,0.127
	c0.023,0.045,0.047,0.092,0.07,0.133s0.045,0.084,0.068,0.125c0.025,0.043,0.047,0.086,0.071,0.129
	c0.022,0.041,0.048,0.084,0.07,0.123c0.024,0.043,0.049,0.084,0.071,0.125c0.023,0.041,0.049,0.082,0.071,0.123
	c0.024,0.041,0.048,0.082,0.073,0.123c0.023,0.037,0.047,0.078,0.07,0.117c0.027,0.041,0.051,0.08,0.076,0.119
	c0.023,0.039,0.047,0.078,0.071,0.117s0.05,0.076,0.075,0.117c0.023,0.037,0.049,0.076,0.074,0.113
	c0.023,0.039,0.049,0.076,0.072,0.115c0.025,0.035,0.051,0.072,0.076,0.111c0.023,0.035,0.049,0.074,0.074,0.111
	c0.025,0.035,0.051,0.074,0.076,0.109s0.05,0.07,0.074,0.105c0.025,0.037,0.051,0.072,0.076,0.109
	c0.025,0.035,0.052,0.07,0.076,0.105c0.025,0.033,0.051,0.068,0.076,0.105c0.025,0.033,0.051,0.068,0.076,0.102
	c0.025,0.035,0.053,0.068,0.076,0.102c0.027,0.033,0.053,0.066,0.077,0.102c0.026,0.031,0.052,0.064,0.077,0.098
	c0.025,0.035,0.051,0.066,0.077,0.098c0.024,0.035,0.052,0.068,0.076,0.098c0.026,0.033,0.052,0.064,0.077,0.098
	c0.027,0.029,0.051,0.061,0.078,0.094c0.027,0.031,0.051,0.063,0.076,0.094c0.027,0.031,0.052,0.061,0.076,0.092
	c0.027,0.029,0.053,0.061,0.078,0.09c0.027,0.031,0.052,0.061,0.076,0.09c0.027,0.029,0.053,0.059,0.078,0.088
	s0.053,0.059,0.076,0.088c0.027,0.029,0.053,0.057,0.078,0.086s0.051,0.057,0.076,0.082c0.027,0.031,0.052,0.059,0.078,0.088
	c0.023,0.027,0.051,0.053,0.075,0.08c0.024,0.029,0.054,0.055,0.077,0.084c0.025,0.025,0.051,0.053,0.074,0.076
	c0.025,0.029,0.053,0.057,0.079,0.08c0.022,0.027,0.05,0.053,0.073,0.076c0.025,0.027,0.051,0.055,0.076,0.078
	c0.025,0.025,0.051,0.051,0.074,0.076c0.025,0.025,0.053,0.051,0.078,0.074c0.021,0.023,0.047,0.049,0.07,0.072
	c0.026,0.025,0.053,0.047,0.078,0.074c0.023,0.023,0.046,0.045,0.07,0.066c0.027,0.025,0.053,0.049,0.076,0.072
	c0.025,0.021,0.049,0.045,0.071,0.068c0.024,0.021,0.052,0.047,0.077,0.07c0.022,0.02,0.045,0.041,0.068,0.061
	c0.025,0.023,0.049,0.045,0.076,0.07c0.021,0.02,0.045,0.041,0.066,0.059c0.025,0.023,0.051,0.045,0.076,0.068
	c0.021,0.02,0.043,0.039,0.064,0.059c0.025,0.021,0.051,0.043,0.075,0.063c0.019,0.016,0.038,0.033,0.057,0.049
	C13.959,35.068,11.031,33.539,8.744,31.254z M19.14,35.309L19.14,35.309c-0.043-0.031-0.088-0.064-0.135-0.098
	c-0.011-0.01-0.023-0.018-0.033-0.025c-0.047-0.035-0.095-0.068-0.143-0.104c0-0.002,0-0.002,0-0.002
	c-0.05-0.035-0.099-0.074-0.148-0.113c-0.012-0.01-0.023-0.018-0.035-0.027c-0.102-0.078-0.207-0.16-0.314-0.25
	c-0.013-0.01-0.025-0.021-0.039-0.031c-0.053-0.045-0.107-0.09-0.164-0.137l0,0c-0.055-0.049-0.109-0.096-0.166-0.145
	c-0.014-0.012-0.028-0.023-0.043-0.035c-0.055-0.051-0.111-0.1-0.166-0.15c-0.002-0.002-0.004-0.002-0.004-0.004
	c-0.039-0.033-0.076-0.068-0.117-0.105c-0.01-0.01-0.021-0.02-0.029-0.029c-0.031-0.025-0.059-0.055-0.088-0.08
	c-0.014-0.014-0.029-0.027-0.043-0.039c-0.024-0.025-0.053-0.051-0.078-0.076c-0.015-0.016-0.031-0.029-0.047-0.047
	c-0.025-0.023-0.051-0.049-0.076-0.072c-0.016-0.016-0.031-0.033-0.049-0.049c-0.025-0.025-0.051-0.051-0.074-0.076
	c-0.018-0.018-0.035-0.035-0.053-0.053c-0.023-0.023-0.05-0.049-0.076-0.076c-0.018-0.018-0.034-0.035-0.053-0.053
	c-0.025-0.027-0.051-0.055-0.078-0.082c-0.016-0.018-0.031-0.035-0.05-0.055c-0.028-0.029-0.055-0.057-0.081-0.088
	c-0.018-0.018-0.033-0.035-0.051-0.051c-0.029-0.033-0.059-0.066-0.09-0.1c-0.013-0.016-0.025-0.031-0.041-0.045
	c-0.039-0.045-0.078-0.09-0.119-0.135c-0.004-0.004-0.009-0.012-0.014-0.016c-0.044-0.051-0.09-0.102-0.135-0.154
	c-0.012-0.014-0.022-0.027-0.035-0.039c-0.031-0.039-0.066-0.078-0.1-0.119c-0.016-0.02-0.031-0.039-0.047-0.059
	c-0.031-0.033-0.059-0.072-0.088-0.105c-0.018-0.021-0.035-0.043-0.053-0.066c-0.029-0.033-0.055-0.068-0.084-0.104
	c-0.018-0.021-0.037-0.045-0.057-0.068c-0.025-0.035-0.052-0.07-0.079-0.104c-0.019-0.023-0.037-0.049-0.058-0.074
	c-0.025-0.033-0.051-0.068-0.078-0.105c-0.021-0.023-0.039-0.049-0.058-0.076c-0.026-0.035-0.054-0.07-0.079-0.107
	c-0.02-0.025-0.039-0.051-0.057-0.076c-0.027-0.037-0.056-0.076-0.082-0.115c-0.018-0.025-0.037-0.051-0.055-0.074
	c-0.029-0.041-0.057-0.084-0.088-0.127c-0.016-0.023-0.031-0.045-0.047-0.068c-0.034-0.049-0.07-0.102-0.104-0.152
	c-0.01-0.016-0.021-0.031-0.031-0.047c-0.045-0.068-0.09-0.137-0.135-0.205c-0.01-0.014-0.018-0.029-0.027-0.045
	c-0.035-0.055-0.07-0.107-0.104-0.164c-0.018-0.025-0.033-0.051-0.047-0.074c-0.03-0.047-0.058-0.094-0.086-0.139
	c-0.017-0.029-0.035-0.059-0.053-0.088c-0.027-0.043-0.051-0.088-0.08-0.133c-0.016-0.029-0.035-0.063-0.052-0.092
	c-0.026-0.045-0.05-0.088-0.075-0.133c-0.018-0.031-0.037-0.064-0.055-0.098c-0.024-0.043-0.049-0.086-0.073-0.133
	c-0.018-0.031-0.036-0.066-0.054-0.098c-0.023-0.045-0.049-0.092-0.072-0.139c-0.018-0.033-0.035-0.064-0.053-0.1
	c-0.025-0.047-0.049-0.094-0.072-0.143c-0.018-0.033-0.034-0.066-0.051-0.1c-0.025-0.049-0.05-0.102-0.076-0.152
	c-0.014-0.031-0.029-0.064-0.043-0.094c-0.004-0.008-0.008-0.014-0.012-0.021h0.002c0.004-0.002,0.01-0.004,0.014-0.006
	c0.117-0.033,0.234-0.066,0.354-0.1c0.039-0.01,0.076-0.02,0.115-0.029c0.088-0.023,0.178-0.047,0.267-0.068
	c0.041-0.012,0.083-0.02,0.122-0.031c0.101-0.023,0.201-0.049,0.303-0.07c0.025-0.008,0.051-0.012,0.077-0.02
	c0.124-0.027,0.251-0.053,0.378-0.078c0.033-0.008,0.07-0.014,0.105-0.021c0.094-0.018,0.188-0.037,0.283-0.055
	c0.043-0.008,0.086-0.016,0.129-0.023c0.096-0.016,0.189-0.031,0.285-0.047c0.036-0.006,0.074-0.014,0.109-0.018
	c0.131-0.02,0.26-0.039,0.391-0.057c0.023-0.004,0.047-0.008,0.068-0.01c0.109-0.018,0.221-0.029,0.33-0.043
	c0.043-0.004,0.086-0.01,0.129-0.016c0.096-0.01,0.188-0.021,0.285-0.029c0.043-0.004,0.084-0.01,0.126-0.014
	c0.122-0.012,0.243-0.023,0.367-0.031c0.013-0.002,0.024-0.002,0.038-0.002c0.134-0.012,0.27-0.021,0.405-0.029
	c0.041-0.002,0.079-0.004,0.12-0.008c0.1-0.004,0.199-0.012,0.299-0.012c0.043-0.002,0.088-0.004,0.134-0.008
	c0.03,0,0.063,0,0.093-0.002V35.309z M22.686,33.682c-0.02,0.02-0.037,0.037-0.055,0.055c-0.025,0.023-0.047,0.045-0.07,0.066
	c-0.018,0.018-0.033,0.035-0.051,0.053c-0.025,0.021-0.049,0.045-0.074,0.068c-0.016,0.014-0.031,0.031-0.047,0.045
	c-0.025,0.023-0.053,0.049-0.08,0.074c-0.012,0.012-0.023,0.023-0.037,0.035c-0.039,0.035-0.076,0.07-0.115,0.105
	c-0.064,0.059-0.127,0.113-0.188,0.168c-0.014,0.01-0.023,0.021-0.037,0.031c-0.059,0.051-0.119,0.104-0.178,0.152
	c-0.01,0.01-0.02,0.018-0.031,0.027c-0.055,0.047-0.109,0.092-0.164,0.135c-0.008,0.006-0.014,0.01-0.018,0.016
	c-0.057,0.047-0.113,0.092-0.17,0.137c-0.012,0.008-0.023,0.016-0.035,0.025c-0.055,0.043-0.109,0.086-0.162,0.127
	c-0.006,0.006-0.014,0.012-0.021,0.016c-0.049,0.039-0.098,0.074-0.145,0.109c-0.008,0.008-0.018,0.014-0.025,0.018
	c-0.051,0.039-0.101,0.076-0.147,0.109c-0.012,0.008-0.021,0.016-0.033,0.023c-0.047,0.033-0.094,0.066-0.14,0.1h-0.002v-7.336
	c0.046,0.002,0.091,0.002,0.134,0.004c0.045,0.002,0.092,0.004,0.138,0.006c0.109,0.004,0.216,0.01,0.326,0.014
	c0.029,0.002,0.061,0.004,0.092,0.006c0.137,0.008,0.273,0.016,0.408,0.025c0.035,0.006,0.068,0.008,0.104,0.01
	c0.104,0.008,0.207,0.018,0.307,0.027c0.047,0.004,0.092,0.008,0.137,0.014c0.096,0.008,0.193,0.02,0.287,0.029
	c0.043,0.004,0.084,0.01,0.125,0.016c0.133,0.016,0.268,0.029,0.398,0.049h0.006c0.129,0.02,0.262,0.037,0.391,0.059
	c0.041,0.008,0.082,0.012,0.123,0.02c0.094,0.016,0.186,0.031,0.279,0.047c0.043,0.008,0.086,0.016,0.131,0.023
	c0.098,0.018,0.195,0.035,0.295,0.055c0.033,0.008,0.064,0.014,0.096,0.02c0.129,0.027,0.256,0.053,0.383,0.08
	c0.029,0.008,0.057,0.014,0.086,0.02c0.102,0.023,0.199,0.049,0.299,0.072c0.041,0.01,0.082,0.02,0.123,0.029
	c0.09,0.023,0.18,0.045,0.27,0.07c0.039,0.01,0.078,0.02,0.117,0.031c0.115,0.029,0.232,0.063,0.346,0.098
	c0.008,0.002,0.018,0.002,0.025,0.006l0.004,0.002c-0.002,0.008-0.006,0.014-0.01,0.021c-0.016,0.029-0.031,0.064-0.047,0.096
	c-0.023,0.051-0.049,0.102-0.072,0.148c-0.018,0.035-0.035,0.07-0.051,0.104c-0.025,0.047-0.049,0.094-0.072,0.139
	c-0.018,0.037-0.037,0.068-0.055,0.104c-0.023,0.045-0.045,0.09-0.068,0.131c-0.02,0.037-0.039,0.072-0.057,0.105
	c-0.023,0.043-0.049,0.088-0.072,0.127c-0.02,0.035-0.039,0.068-0.057,0.102c-0.021,0.045-0.047,0.086-0.072,0.129
	c-0.018,0.031-0.037,0.064-0.057,0.096c-0.023,0.043-0.049,0.084-0.074,0.127c-0.018,0.029-0.037,0.063-0.055,0.092
	c-0.027,0.045-0.053,0.088-0.08,0.129c-0.018,0.029-0.035,0.057-0.051,0.086c-0.033,0.049-0.064,0.098-0.094,0.146
	c-0.014,0.02-0.027,0.041-0.039,0.063c-0.045,0.066-0.09,0.135-0.131,0.201c-0.016,0.021-0.031,0.043-0.045,0.063
	c-0.031,0.047-0.061,0.092-0.092,0.135c-0.02,0.029-0.037,0.055-0.057,0.082c-0.025,0.039-0.051,0.076-0.078,0.113
	c-0.02,0.027-0.039,0.057-0.061,0.084c-0.023,0.035-0.049,0.07-0.076,0.105c-0.018,0.027-0.041,0.055-0.061,0.084
	c-0.023,0.033-0.049,0.064-0.074,0.102c-0.021,0.027-0.041,0.055-0.063,0.08c-0.023,0.035-0.049,0.066-0.072,0.1
	c-0.021,0.027-0.043,0.055-0.063,0.08c-0.025,0.031-0.051,0.064-0.074,0.096c-0.021,0.025-0.041,0.051-0.063,0.076
	c-0.025,0.033-0.049,0.064-0.076,0.096c-0.02,0.025-0.039,0.049-0.059,0.072c-0.027,0.033-0.053,0.064-0.08,0.096
	c-0.018,0.021-0.035,0.047-0.055,0.068c-0.031,0.035-0.059,0.068-0.088,0.102c-0.016,0.02-0.031,0.037-0.047,0.057
	c-0.045,0.051-0.086,0.1-0.131,0.152c-0.012,0.01-0.021,0.023-0.035,0.037c-0.031,0.037-0.066,0.074-0.098,0.111
	c-0.018,0.02-0.033,0.037-0.051,0.055c-0.027,0.029-0.055,0.061-0.082,0.088c-0.018,0.02-0.035,0.039-0.057,0.061
	c-0.021,0.027-0.049,0.053-0.072,0.08c-0.02,0.02-0.039,0.041-0.057,0.061c-0.025,0.025-0.049,0.051-0.072,0.074
	c-0.02,0.02-0.039,0.039-0.057,0.059c-0.023,0.025-0.047,0.049-0.072,0.072c-0.018,0.02-0.035,0.037-0.055,0.057
	C22.732,33.635,22.709,33.658,22.686,33.682z M22.77,35.674c0.018-0.012,0.033-0.027,0.047-0.041
	c0.031-0.023,0.061-0.049,0.092-0.076c0.018-0.016,0.035-0.031,0.053-0.045c0.029-0.027,0.059-0.053,0.088-0.078
	c0.018-0.02,0.037-0.035,0.055-0.053c0.031-0.023,0.059-0.051,0.09-0.078c0.02-0.018,0.039-0.035,0.057-0.053
	c0.029-0.025,0.059-0.053,0.086-0.08c0.021-0.02,0.041-0.037,0.063-0.057c0.029-0.027,0.057-0.053,0.086-0.082
	c0.021-0.018,0.041-0.039,0.063-0.059c0.029-0.027,0.057-0.055,0.086-0.082c0.021-0.021,0.043-0.041,0.064-0.063
	c0.029-0.027,0.057-0.057,0.086-0.086c0.021-0.02,0.043-0.043,0.064-0.064c0.027-0.029,0.059-0.059,0.086-0.086
	c0.021-0.023,0.045-0.045,0.066-0.068c0.027-0.029,0.057-0.059,0.084-0.09c0.023-0.021,0.047-0.047,0.07-0.072
	c0.025-0.027,0.055-0.059,0.084-0.088c0.021-0.025,0.047-0.049,0.07-0.074c0.027-0.031,0.055-0.061,0.084-0.092
	c0.023-0.025,0.045-0.053,0.07-0.078c0.025-0.031,0.055-0.063,0.082-0.094c0.023-0.025,0.049-0.053,0.072-0.078
	c0.025-0.035,0.055-0.064,0.08-0.098c0.025-0.025,0.051-0.055,0.074-0.084c0.027-0.029,0.055-0.064,0.08-0.096
	c0.027-0.029,0.051-0.057,0.076-0.086c0.025-0.033,0.053-0.066,0.08-0.098c0.023-0.031,0.051-0.063,0.074-0.092
	c0.025-0.033,0.053-0.064,0.08-0.102c0.025-0.027,0.051-0.061,0.074-0.094c0.027-0.031,0.055-0.064,0.08-0.1
	c0.025-0.033,0.051-0.064,0.076-0.096c0.025-0.037,0.053-0.07,0.076-0.105c0.027-0.033,0.053-0.064,0.076-0.1
	c0.025-0.035,0.053-0.068,0.08-0.105c0.023-0.033,0.049-0.068,0.072-0.104c0.027-0.035,0.053-0.07,0.078-0.105
	c0.025-0.037,0.051-0.072,0.076-0.109c0.023-0.035,0.051-0.072,0.076-0.107s0.051-0.074,0.076-0.109
	c0.023-0.037,0.049-0.074,0.074-0.109c0.025-0.041,0.051-0.078,0.074-0.115c0.025-0.039,0.049-0.074,0.076-0.113
	c0.025-0.037,0.047-0.076,0.072-0.115c0.027-0.039,0.049-0.078,0.074-0.117s0.049-0.078,0.074-0.119
	c0.025-0.037,0.051-0.076,0.072-0.115c0.025-0.041,0.049-0.082,0.076-0.121c0.023-0.041,0.045-0.082,0.07-0.123
	s0.049-0.082,0.072-0.123s0.049-0.082,0.07-0.125c0.023-0.041,0.049-0.082,0.072-0.125s0.047-0.086,0.07-0.129
	c0.023-0.039,0.047-0.082,0.068-0.127c0.023-0.043,0.047-0.086,0.07-0.129c0.023-0.045,0.047-0.09,0.068-0.131
	c0.023-0.045,0.047-0.09,0.07-0.135c0.021-0.043,0.045-0.088,0.066-0.133c0.023-0.045,0.045-0.09,0.068-0.137
	c0.021-0.045,0.043-0.092,0.064-0.135c0.023-0.047,0.045-0.094,0.068-0.141c0.014-0.029,0.027-0.061,0.043-0.09
	c0.002,0.002,0.006,0.002,0.01,0.004c0.145,0.057,0.289,0.113,0.432,0.174c0.037,0.014,0.072,0.031,0.109,0.045
	c0.121,0.051,0.24,0.104,0.361,0.158c0.025,0.012,0.051,0.023,0.076,0.033c0.141,0.064,0.281,0.129,0.418,0.197
	c0.033,0.016,0.064,0.031,0.096,0.047c0.115,0.057,0.23,0.113,0.344,0.172c0.029,0.016,0.059,0.033,0.09,0.047
	c0.135,0.072,0.268,0.145,0.4,0.221c0.025,0.016,0.055,0.031,0.084,0.049c0.109,0.063,0.221,0.125,0.33,0.189
	c0.031,0.02,0.063,0.039,0.096,0.059c0.129,0.08,0.258,0.16,0.385,0.24c0.021,0.016,0.043,0.029,0.064,0.043
	c0.109,0.07,0.217,0.145,0.324,0.217c0.02,0.014,0.037,0.027,0.057,0.039C28.904,33.588,25.949,35.109,22.77,35.674z M7.773,9.804
	C7.781,9.809,7.789,9.815,7.795,9.82c0.021,0.015,0.042,0.028,0.062,0.043c0.074,0.049,0.148,0.101,0.222,0.15
	c0.03,0.02,0.061,0.037,0.089,0.057c0.074,0.048,0.146,0.097,0.221,0.144c0.023,0.016,0.047,0.03,0.07,0.045
	c0.096,0.061,0.191,0.12,0.287,0.179c0.021,0.013,0.043,0.024,0.065,0.037c0.077,0.046,0.154,0.093,0.229,0.136
	c0.033,0.021,0.064,0.038,0.095,0.056c0.075,0.042,0.151,0.085,0.228,0.128c0.023,0.014,0.049,0.028,0.074,0.043
	c0.1,0.055,0.199,0.107,0.299,0.16c0.021,0.012,0.043,0.021,0.064,0.032c0.082,0.043,0.163,0.085,0.246,0.126
	c0.03,0.016,0.063,0.032,0.094,0.047c0.078,0.04,0.157,0.079,0.236,0.117c0.025,0.012,0.051,0.023,0.078,0.038
	c0.104,0.048,0.207,0.096,0.311,0.144c0.021,0.008,0.039,0.018,0.061,0.025c0.086,0.039,0.172,0.076,0.258,0.113
	c0.033,0.016,0.066,0.027,0.098,0.042c0.082,0.036,0.162,0.067,0.242,0.102c0.029,0.013,0.056,0.022,0.084,0.035
	c0.102,0.041,0.203,0.081,0.305,0.12c-0.016,0.039-0.029,0.082-0.043,0.119s-0.027,0.074-0.041,0.111
	c-0.047,0.125-0.092,0.25-0.134,0.375c-0.007,0.02-0.013,0.037-0.019,0.055c-0.266,0.781-0.488,1.588-0.662,2.418h1.558
	c0.03-0.139,0.065-0.274,0.099-0.411c0.002-0.009,0.004-0.02,0.007-0.03c0.032-0.124,0.063-0.244,0.095-0.367
	c0.006-0.016,0.012-0.033,0.016-0.051c0.035-0.126,0.07-0.252,0.107-0.375c0.002-0.006,0.003-0.01,0.004-0.016
	c0.08-0.264,0.163-0.526,0.254-0.785c0.006-0.018,0.013-0.033,0.018-0.051c0.037-0.107,0.074-0.211,0.115-0.316
	c0.01-0.028,0.02-0.059,0.031-0.087c0.013-0.032,0.025-0.065,0.037-0.095c0.033,0.008,0.068,0.019,0.1,0.025
	c0.048,0.015,0.094,0.031,0.141,0.043c0.092,0.025,0.184,0.051,0.275,0.076c0.041,0.013,0.084,0.023,0.127,0.035
	c0.125,0.032,0.254,0.066,0.381,0.096c0.007,0.002,0.014,0.006,0.021,0.008c0.135,0.031,0.271,0.063,0.406,0.094
	c0.041,0.01,0.084,0.02,0.125,0.028c0.096,0.021,0.193,0.04,0.289,0.062c0.048,0.008,0.096,0.02,0.145,0.027
	c0.096,0.02,0.191,0.037,0.287,0.055c0.045,0.009,0.09,0.018,0.135,0.025c0.125,0.022,0.252,0.043,0.381,0.063
	c0.012,0.003,0.025,0.003,0.037,0.005c0.14,0.023,0.281,0.043,0.422,0.066c0.043,0.003,0.085,0.008,0.128,0.014
	c0.101,0.014,0.2,0.026,0.302,0.039c0.051,0.006,0.101,0.012,0.15,0.018c0.1,0.011,0.197,0.021,0.295,0.032
	c0.049,0.005,0.095,0.009,0.143,0.015c0.124,0.012,0.25,0.021,0.375,0.033c0.02,0,0.039,0.002,0.057,0.003
	c0.146,0.013,0.291,0.022,0.438,0.03c0.045,0.004,0.086,0.004,0.131,0.006c0.104,0.007,0.207,0.01,0.314,0.018
	c0.051,0,0.102,0.002,0.155,0.003c0.042,0.002,0.085,0.004,0.128,0.006v1.659h1.521V13.36c0.058-0.001,0.112-0.003,0.171-0.005
	c0.051-0.002,0.102-0.004,0.152-0.005c0.118-0.004,0.235-0.011,0.354-0.018c0.031-0.002,0.061-0.002,0.092-0.004
	c0.146-0.01,0.293-0.02,0.441-0.03c0.039-0.002,0.078-0.007,0.117-0.009c0.107-0.009,0.213-0.018,0.32-0.027
	c0.053-0.004,0.104-0.01,0.154-0.016c0.098-0.011,0.193-0.02,0.291-0.029c0.049-0.006,0.1-0.014,0.152-0.018
	c0.105-0.013,0.211-0.027,0.314-0.041c0.039-0.006,0.078-0.01,0.115-0.015c0.145-0.02,0.287-0.039,0.426-0.062
	c0.031-0.006,0.063-0.011,0.092-0.017c0.113-0.018,0.223-0.035,0.332-0.055c0.051-0.009,0.096-0.019,0.146-0.026
	c0.094-0.017,0.188-0.035,0.279-0.053c0.051-0.01,0.1-0.021,0.15-0.031c0.098-0.02,0.193-0.039,0.291-0.061
	c0.043-0.008,0.084-0.018,0.127-0.025c0.135-0.032,0.271-0.064,0.408-0.096c0.014-0.004,0.027-0.01,0.041-0.012
	c0.123-0.029,0.244-0.062,0.365-0.094c0.043-0.01,0.088-0.023,0.131-0.035c0.092-0.025,0.184-0.05,0.275-0.078
	c0.047-0.01,0.096-0.026,0.143-0.041c0.035-0.009,0.07-0.02,0.104-0.027c0.012,0.029,0.027,0.061,0.039,0.094
	c0.01,0.029,0.021,0.06,0.033,0.09c0.035,0.104,0.074,0.207,0.111,0.313c0.006,0.018,0.012,0.035,0.02,0.055
	c0.09,0.257,0.172,0.52,0.25,0.781c0.004,0.008,0.004,0.013,0.006,0.018c0.039,0.125,0.072,0.249,0.107,0.373
	c0.004,0.018,0.01,0.037,0.016,0.057c0.033,0.121,0.064,0.239,0.094,0.361c0.004,0.013,0.008,0.023,0.01,0.033
	c0.035,0.137,0.066,0.271,0.098,0.41h1.559c-0.176-0.83-0.398-1.637-0.664-2.418c-0.006-0.018-0.012-0.035-0.018-0.053
	c-0.043-0.127-0.088-0.252-0.133-0.377c-0.014-0.037-0.027-0.074-0.041-0.107c-0.014-0.041-0.029-0.084-0.045-0.123
	c0.104-0.04,0.211-0.083,0.316-0.125c0.027-0.013,0.059-0.025,0.088-0.035c0.08-0.034,0.162-0.068,0.24-0.102
	c0.035-0.016,0.066-0.028,0.1-0.043c0.09-0.039,0.178-0.078,0.266-0.119c0.02-0.008,0.039-0.016,0.057-0.022
	c0.105-0.05,0.211-0.099,0.316-0.149c0.027-0.01,0.053-0.023,0.08-0.038c0.08-0.038,0.158-0.077,0.238-0.115
	c0.033-0.017,0.063-0.032,0.096-0.05c0.084-0.043,0.166-0.084,0.25-0.128c0.021-0.011,0.041-0.021,0.061-0.032
	c0.102-0.055,0.205-0.107,0.305-0.164c0.025-0.015,0.049-0.027,0.074-0.041c0.078-0.045,0.156-0.087,0.232-0.131
	c0.031-0.02,0.061-0.037,0.092-0.056c0.08-0.046,0.158-0.093,0.236-0.14c0.021-0.013,0.043-0.025,0.064-0.039
	c0.1-0.059,0.195-0.121,0.293-0.182c0.023-0.014,0.045-0.027,0.064-0.042c0.076-0.05,0.154-0.099,0.229-0.149
	c0.029-0.02,0.059-0.041,0.09-0.058c0.072-0.05,0.146-0.101,0.219-0.149c0.021-0.018,0.047-0.033,0.068-0.048
	c0.008-0.007,0.02-0.013,0.027-0.02c1.313,1.562,2.303,3.346,2.93,5.255h1.596c-0.746-2.505-2.053-4.826-3.852-6.791l0,0
	c-1.617-1.767-3.541-3.158-5.717-4.139C24.893,3.075,22.488,2.56,20,2.56c-0.022,0-0.047,0-0.068,0l-0.038,0.001l0,0
	c-2.479,0.016-4.874,0.539-7.114,1.561c-2.166,0.986-4.078,2.381-5.686,4.15l0,0c-1.778,1.953-3.067,4.259-3.807,6.744h1.592
	C5.501,13.125,6.478,11.357,7.773,9.804z M31.145,8.633c-0.018,0.013-0.035,0.025-0.053,0.037c-0.111,0.075-0.221,0.147-0.332,0.221
	c-0.02,0.01-0.035,0.022-0.053,0.033c-0.127,0.08-0.256,0.16-0.383,0.236c-0.033,0.021-0.068,0.041-0.104,0.063
	c-0.105,0.063-0.217,0.125-0.326,0.188c-0.027,0.014-0.053,0.029-0.08,0.046c-0.131,0.072-0.264,0.144-0.396,0.212
	c-0.031,0.019-0.064,0.034-0.096,0.053c-0.111,0.057-0.223,0.111-0.334,0.166c-0.033,0.016-0.066,0.032-0.1,0.048
	c-0.135,0.067-0.271,0.13-0.41,0.191c-0.029,0.013-0.057,0.024-0.084,0.039c-0.117,0.052-0.234,0.101-0.352,0.151
	c-0.037,0.016-0.074,0.031-0.111,0.046c-0.141,0.058-0.283,0.114-0.428,0.17c-0.004,0.002-0.008,0.003-0.012,0.003
	c-0.012-0.027-0.027-0.057-0.041-0.084c-0.023-0.049-0.045-0.095-0.068-0.141c-0.021-0.045-0.043-0.09-0.066-0.133
	c-0.021-0.046-0.041-0.091-0.066-0.135c-0.021-0.045-0.045-0.089-0.066-0.132c-0.023-0.044-0.045-0.089-0.068-0.131
	s-0.047-0.087-0.07-0.13c-0.021-0.042-0.043-0.084-0.066-0.127s-0.049-0.086-0.072-0.128c-0.021-0.041-0.045-0.081-0.068-0.122
	c-0.023-0.045-0.047-0.087-0.072-0.128c-0.023-0.038-0.047-0.079-0.07-0.118c-0.021-0.043-0.049-0.084-0.072-0.127
	c-0.023-0.037-0.047-0.076-0.068-0.115c-0.027-0.04-0.051-0.083-0.076-0.121c-0.023-0.039-0.047-0.077-0.07-0.113
	c-0.025-0.041-0.051-0.082-0.076-0.123c-0.023-0.033-0.047-0.072-0.07-0.108c-0.025-0.04-0.051-0.078-0.078-0.118
	c-0.023-0.035-0.047-0.071-0.07-0.106c-0.025-0.04-0.051-0.078-0.078-0.117c-0.023-0.034-0.047-0.069-0.07-0.103
	c-0.025-0.039-0.053-0.078-0.08-0.114c-0.021-0.035-0.047-0.069-0.07-0.101c-0.025-0.039-0.053-0.074-0.078-0.111
	c-0.025-0.034-0.049-0.068-0.074-0.1c-0.025-0.035-0.053-0.073-0.08-0.109c-0.021-0.033-0.047-0.064-0.07-0.097
	c-0.025-0.033-0.055-0.071-0.082-0.104c-0.021-0.031-0.047-0.064-0.07-0.096c-0.027-0.033-0.053-0.069-0.082-0.103
	c-0.023-0.03-0.047-0.063-0.072-0.093c-0.025-0.033-0.053-0.066-0.078-0.101c-0.027-0.03-0.049-0.061-0.074-0.089
	c-0.027-0.033-0.053-0.065-0.08-0.1c-0.023-0.028-0.049-0.059-0.074-0.086c-0.023-0.032-0.053-0.064-0.078-0.095
	s-0.049-0.058-0.074-0.087c-0.027-0.03-0.053-0.061-0.078-0.09c-0.027-0.029-0.049-0.059-0.074-0.086
	c-0.027-0.027-0.053-0.059-0.08-0.088C24.488,6,24.465,5.973,24.439,5.944c-0.023-0.027-0.051-0.057-0.078-0.084
	c-0.025-0.029-0.051-0.056-0.074-0.082c-0.027-0.028-0.051-0.055-0.076-0.082c-0.027-0.027-0.051-0.053-0.076-0.08
	c-0.025-0.026-0.051-0.053-0.074-0.079c-0.027-0.024-0.053-0.052-0.076-0.078c-0.025-0.024-0.051-0.052-0.074-0.076
	c-0.025-0.024-0.053-0.052-0.076-0.076c-0.025-0.022-0.051-0.048-0.074-0.073c-0.025-0.024-0.051-0.049-0.076-0.074
	c-0.023-0.023-0.047-0.047-0.072-0.068c-0.025-0.027-0.051-0.05-0.076-0.074c-0.023-0.023-0.047-0.045-0.068-0.068
	c-0.027-0.024-0.055-0.047-0.078-0.07c-0.023-0.021-0.045-0.043-0.068-0.066c-0.025-0.023-0.051-0.046-0.076-0.066
	c-0.023-0.021-0.047-0.045-0.068-0.063C23.15,4.659,23.125,4.635,23.1,4.613c-0.021-0.02-0.043-0.038-0.064-0.06
	c-0.027-0.021-0.051-0.043-0.076-0.064c-0.021-0.02-0.043-0.039-0.064-0.057c-0.025-0.023-0.049-0.043-0.076-0.065
	c-0.016-0.015-0.031-0.026-0.047-0.041C25.914,4.884,28.846,6.382,31.145,8.633z M20.661,4.622L20.661,4.622
	c0.038,0.026,0.077,0.055,0.116,0.084c0.012,0.007,0.021,0.014,0.035,0.022c0.027,0.021,0.057,0.043,0.088,0.063
	c0.014,0.01,0.025,0.018,0.037,0.028c0.035,0.026,0.071,0.052,0.108,0.081c0.006,0.002,0.014,0.008,0.02,0.014
	c0.043,0.029,0.086,0.063,0.129,0.098c0.014,0.01,0.023,0.02,0.037,0.028c0.033,0.026,0.066,0.051,0.1,0.077
	c0.014,0.014,0.029,0.023,0.045,0.036c0.035,0.028,0.07,0.059,0.107,0.087c0.01,0.007,0.021,0.016,0.031,0.024
	c0.047,0.039,0.094,0.079,0.143,0.115c0.01,0.011,0.025,0.021,0.035,0.032c0.037,0.03,0.074,0.063,0.109,0.092
	c0.016,0.016,0.035,0.028,0.051,0.043c0.035,0.031,0.072,0.063,0.107,0.096c0.016,0.013,0.027,0.023,0.043,0.035
	c0.049,0.045,0.1,0.089,0.15,0.135c0.01,0.011,0.021,0.021,0.033,0.03c0.039,0.035,0.08,0.074,0.121,0.112
	c0.018,0.016,0.035,0.033,0.053,0.047c0.037,0.038,0.072,0.071,0.111,0.107c0.018,0.016,0.033,0.031,0.049,0.045
	c0.051,0.052,0.105,0.104,0.156,0.154c0.008,0.008,0.016,0.015,0.023,0.023c0.045,0.046,0.092,0.092,0.139,0.139
	c0.016,0.018,0.035,0.037,0.053,0.053c0.037,0.039,0.076,0.08,0.115,0.119c0.016,0.02,0.033,0.037,0.053,0.057
	c0.049,0.051,0.1,0.104,0.148,0.159c0.006,0.006,0.01,0.011,0.014,0.015c0.055,0.059,0.109,0.119,0.162,0.179
	c0.018,0.02,0.035,0.039,0.053,0.059c0.037,0.044,0.076,0.089,0.115,0.133c0.02,0.021,0.037,0.042,0.055,0.063
	c0.047,0.052,0.092,0.107,0.135,0.16c0.012,0.013,0.021,0.023,0.033,0.037c0.055,0.066,0.107,0.131,0.162,0.198
	c0.016,0.021,0.031,0.041,0.049,0.061c0.041,0.05,0.08,0.1,0.119,0.151c0.02,0.022,0.035,0.047,0.057,0.07
	c0.039,0.055,0.082,0.11,0.125,0.165c0.012,0.018,0.025,0.035,0.039,0.054c0.055,0.072,0.107,0.145,0.162,0.219
	c0.016,0.021,0.029,0.041,0.043,0.061c0.041,0.057,0.082,0.113,0.121,0.172c0.02,0.027,0.035,0.054,0.055,0.078
	c0.041,0.057,0.08,0.117,0.119,0.174c0.016,0.025,0.029,0.045,0.045,0.067c0.053,0.079,0.105,0.161,0.156,0.241
	c0.014,0.018,0.023,0.035,0.035,0.053c0.041,0.068,0.084,0.133,0.125,0.201c0.018,0.027,0.033,0.055,0.051,0.082
	c0.039,0.064,0.076,0.127,0.115,0.188c0.014,0.025,0.029,0.052,0.045,0.078c0.051,0.087,0.102,0.176,0.15,0.265
	c0.008,0.012,0.014,0.023,0.02,0.035c0.045,0.08,0.09,0.158,0.131,0.239c0.018,0.028,0.033,0.059,0.047,0.087
	c0.037,0.067,0.072,0.135,0.107,0.204c0.016,0.03,0.029,0.059,0.043,0.089c0.049,0.092,0.096,0.186,0.143,0.279
	c0,0.002,0.002,0.006,0.004,0.008c-0.123,0.035-0.246,0.07-0.369,0.103c-0.037,0.009-0.074,0.02-0.111,0.028
	c-0.092,0.025-0.18,0.047-0.268,0.069c-0.043,0.011-0.084,0.021-0.125,0.03c-0.098,0.023-0.193,0.046-0.289,0.066
	c-0.031,0.008-0.063,0.016-0.094,0.021c-0.127,0.029-0.254,0.056-0.379,0.08c-0.031,0.008-0.061,0.013-0.092,0.018
	c-0.098,0.02-0.197,0.039-0.297,0.057c-0.045,0.008-0.088,0.017-0.131,0.023c-0.092,0.016-0.184,0.031-0.275,0.045
	c-0.041,0.009-0.082,0.014-0.125,0.02c-0.121,0.021-0.246,0.037-0.369,0.055c-0.008,0.002-0.018,0.004-0.018,0.004
	c-0.137,0.018-0.268,0.033-0.4,0.049c-0.041,0.006-0.084,0.009-0.127,0.014c-0.094,0.012-0.186,0.021-0.277,0.031
	c-0.049,0.005-0.096,0.009-0.143,0.012c-0.098,0.012-0.199,0.02-0.297,0.027c-0.037,0.003-0.074,0.005-0.109,0.007
	c-0.133,0.011-0.268,0.02-0.402,0.028c-0.035,0-0.068,0.002-0.102,0.006c-0.104,0.003-0.207,0.008-0.313,0.014
	c-0.047,0.002-0.094,0.002-0.141,0.004c-0.043,0.001-0.085,0.003-0.128,0.005V4.622z M17.173,6.358
	c0.023-0.023,0.047-0.045,0.069-0.07c0.021-0.016,0.038-0.033,0.056-0.051c0.022-0.023,0.045-0.046,0.068-0.068
	c0.018-0.017,0.035-0.033,0.053-0.051c0.023-0.022,0.047-0.044,0.07-0.065c0.016-0.018,0.031-0.032,0.047-0.046
	c0.025-0.024,0.051-0.047,0.075-0.069c0.015-0.014,0.028-0.028,0.042-0.04c0.033-0.031,0.066-0.061,0.1-0.089
	c0.006-0.006,0.011-0.009,0.015-0.015c0.056-0.051,0.113-0.101,0.169-0.15c0.014-0.013,0.027-0.023,0.041-0.037
	c0.055-0.047,0.109-0.092,0.16-0.137c0,0,0.004-0.002,0.006-0.004c0.055-0.046,0.107-0.09,0.16-0.135
	c0.014-0.01,0.027-0.021,0.041-0.033c0.049-0.039,0.096-0.078,0.145-0.115c0.003-0.006,0.008-0.008,0.01-0.01
	c0.053-0.04,0.102-0.079,0.152-0.118c0.014-0.011,0.025-0.02,0.039-0.03c0.043-0.033,0.087-0.066,0.131-0.101
	c0.004-0.002,0.01-0.005,0.014-0.011c0.047-0.033,0.094-0.069,0.139-0.102c0.012-0.01,0.023-0.018,0.036-0.025
	c0.04-0.031,0.077-0.058,0.116-0.086c0.004-0.002,0.01-0.006,0.014-0.009v7.144c-0.029,0-0.059,0-0.089-0.002
	c-0.044-0.002-0.089-0.004-0.134-0.006c-0.099-0.004-0.195-0.009-0.295-0.014c-0.041-0.002-0.08-0.004-0.119-0.008
	c-0.137-0.007-0.27-0.016-0.404-0.026c-0.01,0-0.021-0.001-0.033-0.001c-0.123-0.012-0.245-0.021-0.367-0.032
	c-0.042-0.004-0.084-0.009-0.127-0.015c-0.094-0.008-0.189-0.02-0.281-0.028c-0.045-0.005-0.086-0.009-0.127-0.016
	c-0.112-0.013-0.223-0.026-0.334-0.041c-0.021-0.003-0.041-0.007-0.062-0.009c-0.13-0.018-0.259-0.037-0.389-0.059
	c-0.038-0.004-0.073-0.011-0.11-0.016c-0.096-0.016-0.188-0.03-0.281-0.049c-0.043-0.008-0.086-0.014-0.127-0.022
	c-0.098-0.018-0.194-0.035-0.291-0.056c-0.031-0.004-0.063-0.012-0.096-0.017c-0.127-0.026-0.252-0.052-0.377-0.08
	c-0.027-0.007-0.055-0.013-0.083-0.02c-0.097-0.021-0.196-0.044-0.294-0.069c-0.041-0.009-0.08-0.02-0.121-0.028
	c-0.09-0.022-0.18-0.046-0.268-0.069c-0.037-0.009-0.074-0.02-0.109-0.028c-0.121-0.032-0.242-0.065-0.361-0.101
	c0.002-0.006,0.004-0.009,0.008-0.015c0.012-0.026,0.025-0.05,0.037-0.076c0.027-0.055,0.055-0.111,0.082-0.167
	c0.016-0.029,0.031-0.062,0.047-0.092c0.025-0.048,0.051-0.096,0.076-0.146c0.017-0.032,0.035-0.065,0.053-0.095
	c0.023-0.047,0.048-0.093,0.072-0.138c0.018-0.033,0.035-0.065,0.055-0.097c0.023-0.045,0.047-0.09,0.071-0.132
	c0.02-0.032,0.037-0.063,0.058-0.098c0.021-0.042,0.047-0.085,0.072-0.126c0.018-0.031,0.037-0.063,0.055-0.094
	c0.023-0.043,0.049-0.084,0.074-0.125c0.02-0.031,0.037-0.061,0.057-0.093c0.025-0.041,0.052-0.083,0.076-0.122
	c0.018-0.03,0.035-0.059,0.055-0.089c0.029-0.044,0.055-0.087,0.084-0.132c0.018-0.022,0.031-0.049,0.048-0.074
	c0.042-0.063,0.083-0.125,0.124-0.186c0.01-0.017,0.021-0.033,0.033-0.052c0.035-0.052,0.071-0.104,0.107-0.157
	c0.018-0.023,0.035-0.051,0.053-0.075c0.026-0.038,0.055-0.077,0.082-0.115c0.02-0.026,0.039-0.055,0.059-0.083
	c0.025-0.034,0.051-0.069,0.076-0.105c0.02-0.025,0.04-0.053,0.061-0.081c0.025-0.034,0.051-0.065,0.074-0.099
	c0.021-0.029,0.042-0.055,0.062-0.082c0.024-0.031,0.048-0.063,0.073-0.096c0.021-0.027,0.042-0.053,0.063-0.08
	c0.023-0.031,0.049-0.063,0.073-0.092c0.021-0.027,0.04-0.053,0.062-0.078c0.025-0.032,0.051-0.063,0.075-0.092
	c0.017-0.025,0.039-0.05,0.058-0.072c0.027-0.032,0.053-0.064,0.078-0.095c0.02-0.022,0.039-0.046,0.058-0.067
	c0.026-0.032,0.055-0.066,0.083-0.098c0.018-0.02,0.033-0.039,0.049-0.059c0.041-0.048,0.082-0.092,0.121-0.137
	c0.01-0.012,0.02-0.022,0.031-0.035c0.037-0.042,0.074-0.083,0.111-0.125c0.016-0.019,0.031-0.036,0.049-0.053
	c0.027-0.029,0.053-0.061,0.08-0.088c0.02-0.021,0.037-0.041,0.055-0.061c0.025-0.026,0.051-0.052,0.076-0.08
	c0.019-0.018,0.037-0.037,0.055-0.057c0.025-0.026,0.049-0.049,0.073-0.076c0.018-0.02,0.038-0.037,0.056-0.057
	c0.023-0.023,0.047-0.048,0.07-0.07C17.138,6.395,17.156,6.377,17.173,6.358z M17.11,4.346c-0.015,0.016-0.03,0.027-0.046,0.041
	c-0.023,0.02-0.047,0.039-0.069,0.061c-0.022,0.02-0.046,0.041-0.069,0.061c-0.023,0.021-0.047,0.041-0.07,0.061
	c-0.023,0.021-0.049,0.044-0.071,0.064c-0.024,0.022-0.048,0.043-0.071,0.064c-0.025,0.02-0.047,0.043-0.072,0.065
	c-0.023,0.022-0.049,0.043-0.071,0.065c-0.024,0.021-0.048,0.045-0.071,0.068c-0.025,0.022-0.05,0.044-0.074,0.066
	c-0.024,0.025-0.049,0.049-0.072,0.071c-0.025,0.024-0.049,0.046-0.073,0.071c-0.026,0.025-0.051,0.048-0.075,0.072
	c-0.023,0.023-0.049,0.049-0.073,0.071c-0.024,0.026-0.052,0.052-0.075,0.078c-0.025,0.022-0.049,0.048-0.074,0.073
	c-0.023,0.025-0.051,0.051-0.076,0.077c-0.024,0.024-0.049,0.052-0.074,0.076c-0.025,0.026-0.051,0.056-0.076,0.079
	c-0.024,0.027-0.049,0.055-0.074,0.08c-0.026,0.027-0.051,0.056-0.078,0.084c-0.023,0.026-0.049,0.051-0.074,0.08
	c-0.025,0.027-0.051,0.057-0.076,0.084c-0.025,0.029-0.05,0.056-0.074,0.084c-0.027,0.028-0.053,0.057-0.078,0.087
	s-0.051,0.059-0.074,0.087c-0.027,0.028-0.054,0.059-0.078,0.088c-0.025,0.031-0.052,0.06-0.076,0.09
	c-0.025,0.029-0.053,0.062-0.076,0.092c-0.027,0.029-0.053,0.061-0.076,0.09c-0.025,0.032-0.053,0.063-0.078,0.094
	c-0.025,0.032-0.051,0.063-0.074,0.095c-0.027,0.03-0.053,0.063-0.078,0.096s-0.051,0.065-0.075,0.095
	c-0.026,0.035-0.052,0.066-0.077,0.1c-0.025,0.032-0.051,0.066-0.075,0.098c-0.026,0.035-0.052,0.068-0.076,0.102
	c-0.026,0.035-0.052,0.069-0.077,0.103c-0.025,0.034-0.051,0.067-0.074,0.103c-0.025,0.034-0.051,0.069-0.076,0.105
	C14.131,7.6,14.105,7.635,14.082,7.67c-0.026,0.036-0.051,0.072-0.076,0.107s-0.049,0.07-0.074,0.107
	c-0.025,0.036-0.05,0.072-0.074,0.11c-0.025,0.035-0.051,0.073-0.074,0.108c-0.025,0.037-0.051,0.076-0.074,0.113
	c-0.025,0.037-0.049,0.074-0.074,0.111c-0.023,0.039-0.049,0.078-0.074,0.117c-0.022,0.037-0.047,0.074-0.07,0.113
	c-0.025,0.039-0.05,0.078-0.074,0.119c-0.023,0.037-0.049,0.076-0.071,0.115c-0.022,0.041-0.048,0.082-0.073,0.12
	c-0.023,0.041-0.045,0.08-0.07,0.121c-0.023,0.04-0.049,0.083-0.072,0.122c-0.021,0.041-0.047,0.082-0.068,0.123
	c-0.023,0.042-0.047,0.083-0.072,0.127c-0.022,0.039-0.045,0.082-0.068,0.122c-0.021,0.045-0.047,0.087-0.07,0.13
	c-0.021,0.042-0.045,0.085-0.064,0.125c-0.023,0.045-0.047,0.09-0.07,0.134c-0.021,0.044-0.044,0.087-0.064,0.128
	c-0.023,0.046-0.047,0.092-0.07,0.137c-0.021,0.043-0.041,0.086-0.063,0.131c-0.022,0.046-0.044,0.092-0.067,0.139
	c-0.014,0.029-0.027,0.057-0.041,0.084c0,0-0.005,0-0.008-0.001c-0.143-0.054-0.282-0.11-0.422-0.169
	c-0.037-0.014-0.073-0.029-0.111-0.046c-0.115-0.048-0.231-0.099-0.347-0.149c-0.026-0.012-0.054-0.022-0.079-0.035
	c-0.137-0.061-0.271-0.124-0.406-0.188c-0.032-0.016-0.065-0.032-0.096-0.048c-0.111-0.054-0.223-0.108-0.33-0.163
	c-0.032-0.018-0.064-0.034-0.094-0.05c-0.133-0.069-0.265-0.138-0.395-0.211c-0.023-0.015-0.051-0.03-0.074-0.042
	C9.937,9.374,9.828,9.311,9.722,9.248C9.689,9.227,9.656,9.208,9.621,9.187C9.494,9.112,9.368,9.035,9.242,8.955
	c-0.014-0.009-0.027-0.018-0.04-0.026c-0.114-0.071-0.226-0.146-0.337-0.22C8.848,8.698,8.83,8.684,8.812,8.672
	C11.089,6.43,13.992,4.926,17.11,4.346z"/>
</svg>


