<?xml version="1.0" encoding="utf-8"?>
<!-- Generator: Adobe Illustrator 16.0.0, SVG Export Plug-In . SVG Version: 6.00 Build 0)  -->
<!DOCTYPE svg PUBLIC "-//W3C//DTD SVG 1.1//EN" "http://www.w3.org/Graphics/SVG/1.1/DTD/svg11.dtd">
<svg version="1.1" id="icon_time" xmlns="http://www.w3.org/2000/svg" xmlns:xlink="http://www.w3.org/1999/xlink" x="0px" y="0px"
	 width="40px" height="40px" viewBox="0 0 40 40" enable-background="new 0 0 40 40" xml:space="preserve">
<path fill="#565657" d="M20,2.058c-9.904,0-17.941,8.036-17.941,17.939c0,9.909,8.037,17.944,17.941,17.944
	c9.909,0,17.941-8.035,17.941-17.944C37.941,10.094,29.909,2.058,20,2.058z M20.422,35.313l-0.275-1.494h-0.379l-0.275,1.49
	c-8.106-0.267-14.61-6.816-14.804-14.943l1.53-0.285v-0.374l-1.519-0.284c0.298-8.014,6.734-14.443,14.752-14.728l0.277,1.497h0.379
	l0.277-1.505c8.101,0.201,14.628,6.674,14.921,14.75l-1.435,0.27v0.374l1.445,0.271C35.13,28.514,28.575,35.09,20.422,35.313z"/>

<path fill="#424242" d="M20,4.258c-8.679,0-15.739,7.061-15.739,15.74c0,8.682,7.06,15.746,15.739,15.746
	c8.68,0,15.742-7.063,15.742-15.746C35.742,11.318,28.68,4.258,20,4.258z M20,35.334c-8.467,0-15.33-6.867-15.33-15.336
	c0-8.467,6.863-15.331,15.33-15.331c8.469,0,15.334,6.864,15.334,15.331C35.334,28.467,28.469,35.334,20,35.334z"/>
</svg>
