<?xml version="1.0" encoding="utf-8"?>
<!-- Generator: Adobe Illustrator 16.0.0, SVG Export Plug-In . SVG Version: 6.00 Build 0)  -->
<!DOCTYPE svg PUBLIC "-//W3C//DTD SVG 1.1//EN" "http://www.w3.org/Graphics/SVG/1.1/DTD/svg11.dtd">
<svg version="1.1" id="icon_earth" xmlns="http://www.w3.org/2000/svg" xmlns:xlink="http://www.w3.org/1999/xlink" x="0px" y="0px"
	 width="40px" height="40px" viewBox="0 0 40 40" enable-background="new 0 0 40 40" xml:space="preserve">
<linearGradient id="SVGID_1_" gradientUnits="userSpaceOnUse" x1="3.2339" y1="20" x2="36.7656" y2="20">
	<stop  offset="0" style="stop-color:#555555"/>
	<stop  offset="0.4847" style="stop-color:#5D5E5E"/>
</linearGradient>
<path fill="#EA514E" class="earth_w1" d="M34.693,17.536c-0.379,1.063-0.762,2.127-1.143,3.189c-0.545-1.124-1.092-2.248-1.637-3.371
	c-0.25-0.512-1.053-0.477-1.314,0c-0.617,1.135-1.234,2.27-1.854,3.404c-0.348-1.072-0.693-2.148-1.043-3.223
	c-0.125-0.395-0.521-0.644-0.934-0.53c-0.387,0.106-0.658,0.541-0.531,0.937c0.531,1.645,1.063,3.292,1.594,4.937
	c0.197,0.602,1.061,0.785,1.391,0.182c0.666-1.221,1.332-2.444,1.996-3.666c0.594,1.222,1.189,2.445,1.781,3.666
	c0.313,0.641,1.188,0.383,1.391-0.182c0.59-1.645,1.182-3.292,1.771-4.937c0.139-0.393-0.154-0.834-0.531-0.937
	C35.209,16.888,34.834,17.147,34.693,17.536z"/>
</svg>


