<?xml version="1.0" encoding="utf-8"?>
<!-- Generator: Adobe Illustrator 16.0.0, SVG Export Plug-In . SVG Version: 6.00 Build 0)  -->
<!DOCTYPE svg PUBLIC "-//W3C//DTD SVG 1.1//EN" "http://www.w3.org/Graphics/SVG/1.1/DTD/svg11.dtd">
<svg version="1.1" id="icon_earth" xmlns="http://www.w3.org/2000/svg" xmlns:xlink="http://www.w3.org/1999/xlink" x="0px" y="0px"
	 width="40px" height="40px" viewBox="0 0 40 40" enable-background="new 0 0 40 40" xml:space="preserve">
<linearGradient id="SVGID_1_" gradientUnits="userSpaceOnUse" x1="3.2339" y1="20" x2="36.7656" y2="20">
	<stop  offset="0" style="stop-color:#555555"/>
	<stop  offset="0.4847" style="stop-color:#5D5E5E"/>
</linearGradient>
<path fill="#EA514E" class="earth_w2" d="M24.461,17.005c-0.422-0.117-0.795,0.142-0.936,0.53c-0.381,1.063-0.762,2.127-1.145,3.189
	c-0.545-1.124-1.092-2.248-1.638-3.371c-0.247-0.512-1.052-0.477-1.312,0c-0.618,1.135-1.237,2.27-1.857,3.404
	c-0.344-1.072-0.691-2.148-1.039-3.223c-0.127-0.395-0.521-0.644-0.936-0.53c-0.386,0.106-0.658,0.541-0.529,0.937
	c0.529,1.645,1.063,3.292,1.594,4.937c0.193,0.602,1.061,0.785,1.389,0.182c0.666-1.221,1.332-2.444,1.998-3.666
	c0.594,1.222,1.186,2.445,1.782,3.666c0.311,0.641,1.186,0.383,1.389-0.182c0.59-1.645,1.182-3.292,1.771-4.937
	C25.133,17.549,24.836,17.108,24.461,17.005z"/>
</svg>


