<?xml version="1.0" encoding="utf-8"?>
<!-- Generator: Adobe Illustrator 16.0.0, SVG Export Plug-In . SVG Version: 6.00 Build 0)  -->
<!DOCTYPE svg PUBLIC "-//W3C//DTD SVG 1.1//EN" "http://www.w3.org/Graphics/SVG/1.1/DTD/svg11.dtd">
<svg version="1.1" id="icon_view" xmlns="http://www.w3.org/2000/svg" xmlns:xlink="http://www.w3.org/1999/xlink" x="0px" y="0px"
	 width="40px" height="40px" viewBox="0 0 40 40" enable-background="new 0 0 40 40" xml:space="preserve">

<g class="icon_arrow_blue">
	<path fill="#FFFFFF" d="M37.938,32.564l-2.943-2.977l1.865-1.023c0.297-0.163,0.465-0.49,0.426-0.826
		c-0.041-0.336-0.281-0.615-0.607-0.703l-8.988-2.432c-0.283-0.077-0.592,0.004-0.801,0.213c-0.211,0.21-0.293,0.516-0.219,0.803
		l2.387,8.998c0.088,0.328,0.365,0.569,0.701,0.611c0.335,0.043,0.664-0.127,0.828-0.422l1.027-1.854l2.949,2.977
		c0.154,0.156,0.367,0.244,0.586,0.244c0.002,0,0.002,0,0.002,0c0.221,0,0.432-0.088,0.588-0.242l2.195-2.195
		C38.258,33.414,38.258,32.89,37.938,32.564z"/>
	<polygon fill="#55B7E2" points="37.23,33.277 33.41,29.426 35.969,28.022 27.85,25.826 30.006,33.956 31.418,31.408 35.246,35.26 	
		"/>
</g>
</svg>
